<svg xmlns="http://www.w3.org/2000/svg" version="1.1" xmlns:xlink="http://www.w3.org/1999/xlink" xmlns:svgjs="http://svgjs.dev/svgjs" width="1500" height="1500" viewBox="0 0 1500 1500"><rect width="1500" height="1500" fill="#ffffff"></rect><g transform="matrix(0.6666666666666666,0,0,0.6666666666666666,250.00001779244434,187.66666666666674)"><svg viewBox="0 0 320 360" data-background-color="#ffffff" preserveAspectRatio="xMidYMid meet" height="1687" width="1500" xmlns="http://www.w3.org/2000/svg" xmlns:xlink="http://www.w3.org/1999/xlink"><g id="tight-bounds" transform="matrix(1,0,0,1,0.000005693582238563977,0)"><svg viewBox="0 0 320 360" height="360" width="320"><g><svg></svg></g><g><svg viewBox="0 0 320 360" height="360" width="320"><g><path transform="translate(-8.74414,11.24127) scale(3.37517,3.37517)" d="M89.9 29.89c-2.6-3.17-7.52-4.8-12.74-6.52-2.24-0.74-4.55-1.51-6.81-2.44-2.28-0.94-4.52-2.15-6.7-3.31-4.43-2.38-9.01-4.84-13.66-4.84-4.64 0-9.22 2.46-13.65 4.84-2.18 1.17-4.43 2.38-6.71 3.32-2.25 0.93-4.57 1.69-6.81 2.44-5.22 1.73-10.14 3.36-12.74 6.52-3.47 4.23-3.39 10.5-3.31 17.13 0.01 1 0.02 1.99 0.02 2.97 0 0.98-0.01 1.97-0.03 2.97-0.08 6.64-0.16 12.9 3.31 17.14 2.6 3.16 7.52 4.79 12.73 6.52 2.24 0.74 4.55 1.51 6.82 2.44 2.28 0.94 4.52 2.14 6.69 3.31 4.44 2.39 9.02 4.85 13.66 4.85 4.65 0 9.23-2.46 13.66-4.84 2.18-1.17 4.42-2.38 6.7-3.31 2.25-0.93 4.55-1.69 6.78-2.43 5.25-1.74 10.17-3.37 12.77-6.53 3.47-4.23 3.39-10.5 3.31-17.13-0.01-1.01-0.03-2-0.03-2.98 0-0.98 0.01-1.97 0.03-2.96 0.11-6.66 0.19-12.93-3.29-17.16zM93.12 27.25c-4.66-5.68-13.57-7.03-21.18-10.17-6.81-2.8-13.74-8.47-21.94-8.47-8.2 0-15.13 5.67-21.94 8.47-7.62 3.14-16.52 4.49-21.18 10.17-5.06 6.16-4.24 14.85-4.24 22.75 0 7.89-0.82 16.59 4.23 22.75 4.66 5.68 13.57 7.03 21.18 10.17 6.81 2.81 13.74 8.47 21.94 8.47 8.2 0 15.13-5.66 21.94-8.47 7.62-3.14 16.52-4.49 21.18-10.17 5.05-6.16 4.23-14.85 4.23-22.75 0.02-7.9 0.84-16.59-4.22-22.75zM94.4 52.94c0.09 6.88 0.17 13.35-3.58 17.92-2.82 3.43-7.9 5.12-13.28 6.9-2.24 0.74-4.53 1.5-6.73 2.41-2.22 0.91-4.43 2.1-6.57 3.25-4.58 2.46-9.29 4.99-14.24 4.99-4.95 0-9.66-2.53-14.22-4.98-2.15-1.16-4.37-2.35-6.59-3.26-2.23-0.92-4.52-1.68-6.74-2.41-5.39-1.78-10.47-3.47-13.28-6.9-3.74-4.56-3.66-11.04-3.58-17.9 0.01-1 0.03-1.98 0.03-2.96 0-0.98-0.01-1.96-0.02-2.96-0.09-6.86-0.17-13.34 3.58-17.9 2.82-3.43 7.9-5.11 13.28-6.9 2.23-0.74 4.52-1.5 6.74-2.41 2.22-0.92 4.44-2.11 6.59-3.26 4.56-2.45 9.28-4.99 14.22-4.99 4.94 0 9.66 2.53 14.22 4.98 2.15 1.16 4.37 2.35 6.59 3.26 2.22 0.92 4.52 1.67 6.73 2.41 5.38 1.78 10.47 3.47 13.28 6.9 3.75 4.57 3.67 11.04 3.58 17.9-0.01 1.01-0.03 1.99-0.03 2.96 0 0.98 0.01 1.96 0.02 2.95z" fill="#fbb04b" fill-rule="nonzero" stroke="none" stroke-width="1" stroke-linecap="butt" stroke-linejoin="miter" stroke-miterlimit="10" stroke-dasharray="" stroke-dashoffset="0" font-family="none" font-weight="none" font-size="none" text-anchor="none" style="mix-blend-mode: normal" data-fill-palette-color="tertiary"></path></g><g transform="matrix(1,0,0,1,64,132.28190310722678)"><svg viewBox="0 0 192 95.43619378554642" height="95.43619378554642" width="192"><g><svg viewBox="0 0 192 95.43619378554642" height="95.43619378554642" width="192"><g transform="matrix(1,0,0,1,0,48.68987907055423)"><svg viewBox="0 0 192 46.746314714992195" height="46.746314714992195" width="192"><g id="textblocktransform"><svg viewBox="0 0 192 46.746314714992195" height="46.746314714992195" width="192" id="textblock"><g><svg viewBox="0 0 192 30.648944352992658" height="30.648944352992658" width="192"><g transform="matrix(1,0,0,1,0,0)"><svg width="192" viewBox="3.036024149515159 -19.220940476286536 297.14957585048484 47.43451501243355" height="30.648944352992658" data-palette-color="#ffffff"><path d="M14.063 16.164v0c-4.307-0.794-7.391-2.878-9.25-6.25-1.858-3.38-2.261-7.921-1.21-13.626v0c1.051-5.704 3.059-9.866 6.023-12.485 2.965-2.626 6.601-3.542 10.909-2.747v0c2.852 0.526 5.122 1.615 6.81 3.268 1.695 1.655 2.858 3.764 3.491 6.328v0l-3.673 1.387c-0.359-1.876-1.14-3.471-2.341-4.783-1.195-1.312-2.849-2.162-4.96-2.552v0c-1.455-0.268-2.811-0.233-4.066 0.105-1.249 0.339-2.367 0.946-3.356 1.821-0.982 0.877-1.812 1.981-2.492 3.314-0.679 1.332-1.181 2.874-1.503 4.624v0l-0.932 5.055c-0.645 3.501-0.341 6.391 0.913 8.669 1.256 2.272 3.359 3.68 6.309 4.224v0c2.17 0.4 4.089 0.178 5.757-0.668 1.662-0.853 3.005-2.141 4.027-3.864v0l2.888 2.648c-1.518 2.201-3.406 3.806-5.667 4.812-2.267 1.006-4.826 1.246-7.677 0.72zM40.035 19.906l-3.468-0.538c-1.37-0.213-2.345-0.755-2.925-1.628-0.586-0.874-0.789-1.897-0.607-3.069v0l4.98-32.106 3.913 0.607-5.078 32.738 3.716 0.577zM66.674 23.283l-2.212-0.281c-1.468-0.186-2.47-0.713-3.005-1.581-0.542-0.862-0.822-1.892-0.837-3.09v0l-0.238-0.03c-0.754 1.497-1.82 2.558-3.197 3.183-1.375 0.618-2.946 0.816-4.711 0.591v0c-2.679-0.34-4.675-1.289-5.99-2.846-1.313-1.564-1.821-3.524-1.522-5.879v0c0.303-2.388 1.408-4.109 3.317-5.163 1.915-1.054 4.717-1.347 8.407-0.879v0l5.01 0.636 0.317-2.5c0.228-1.799-0.09-3.234-0.956-4.305-0.858-1.077-2.302-1.744-4.332-2.001v0c-1.534-0.195-2.861-0.014-3.98 0.543-1.112 0.558-2.085 1.365-2.918 2.422v0l-2.082-2.502c0.862-1.288 2.109-2.32 3.739-3.094 1.624-0.775 3.58-1.017 5.869-0.727v0c3.075 0.39 5.367 1.447 6.875 3.171 1.509 1.717 2.093 3.918 1.753 6.603v0l-1.768 13.929 2.897 0.367zM53.531 18.823v0c0.985 0.125 1.9 0.123 2.743-0.005 0.849-0.121 1.594-0.355 2.236-0.704 0.643-0.355 1.162-0.79 1.557-1.305 0.401-0.514 0.643-1.098 0.726-1.752v0l0.529-4.167-5.198-0.659c-2.262-0.287-3.947-0.168-5.055 0.356-1.115 0.524-1.751 1.407-1.909 2.651v0l-0.131 1.032c-0.157 1.237 0.171 2.256 0.983 3.058 0.812 0.802 1.985 1.3 3.519 1.495zM80.28 25.143v0c-2.363-0.222-4.299-0.859-5.807-1.911-1.508-1.052-2.766-2.386-3.772-4v0l3.02-2.007c0.865 1.34 1.873 2.406 3.025 3.197 1.152 0.784 2.531 1.252 4.137 1.403v0c1.679 0.158 3.018-0.082 4.014-0.718 1.003-0.629 1.566-1.601 1.69-2.915v0c0.093-0.989-0.146-1.865-0.717-2.629-0.571-0.763-1.684-1.357-3.339-1.779v0l-1.984-0.478c-1.166-0.277-2.227-0.634-3.183-1.072-0.95-0.437-1.767-0.976-2.45-1.616-0.689-0.647-1.196-1.418-1.521-2.312-0.332-0.888-0.442-1.923-0.331-3.105v0c0.117-1.248 0.449-2.318 0.994-3.211 0.546-0.893 1.25-1.614 2.112-2.162 0.868-0.548 1.875-0.926 3.019-1.133 1.144-0.207 2.357-0.251 3.638-0.131v0c2.064 0.194 3.759 0.718 5.085 1.572 1.326 0.854 2.457 1.972 3.392 3.352v0l-2.83 2.115c-0.483-0.842-1.24-1.633-2.268-2.372-1.022-0.739-2.353-1.185-3.993-1.339v0c-1.639-0.154-2.91 0.082-3.813 0.706-0.902 0.625-1.411 1.545-1.524 2.76v0c-0.117 1.248 0.216 2.19 1 2.826 0.784 0.636 1.95 1.161 3.498 1.574v0l1.945 0.473c2.78 0.696 4.705 1.697 5.774 3.003 1.069 1.312 1.512 2.934 1.332 4.866v0c-0.231 2.463-1.249 4.322-3.055 5.579-1.805 1.25-4.167 1.738-7.088 1.464zM104.41 26.96v0c-2.369-0.148-4.323-0.724-5.864-1.728-1.541-1.004-2.839-2.298-3.896-3.88v0l2.956-2.1c0.907 1.312 1.948 2.346 3.124 3.101 1.176 0.748 2.569 1.172 4.179 1.272v0c1.683 0.105 3.013-0.176 3.99-0.844 0.983-0.66 1.515-1.649 1.597-2.966v0c0.062-0.991-0.205-1.86-0.799-2.605-0.595-0.745-1.726-1.303-3.393-1.674v0l-1.998-0.415c-1.174-0.24-2.246-0.564-3.215-0.972-0.963-0.407-1.796-0.92-2.5-1.538-0.709-0.625-1.24-1.38-1.592-2.264-0.359-0.877-0.502-1.908-0.428-3.092v0c0.078-1.251 0.376-2.331 0.893-3.241 0.518-0.91 1.198-1.652 2.042-2.227 0.851-0.575 1.845-0.984 2.982-1.227 1.137-0.243 2.348-0.325 3.633-0.245v0c2.069 0.129 3.78 0.6 5.132 1.412 1.352 0.812 2.517 1.894 3.495 3.244v0l-2.762 2.202c-0.51-0.827-1.29-1.593-2.342-2.3-1.045-0.706-2.389-1.111-4.032-1.213v0c-1.643-0.102-2.906 0.173-3.789 0.826-0.882 0.653-1.361 1.588-1.437 2.806v0c-0.078 1.251 0.285 2.182 1.088 2.793 0.804 0.611 1.986 1.099 3.546 1.463v0l1.958 0.413c2.801 0.609 4.756 1.549 5.866 2.82 1.109 1.278 1.604 2.885 1.483 4.822v0c-0.154 2.469-1.113 4.359-2.878 5.672-1.765 1.306-4.111 1.868-7.039 1.685zM133.834 28.108v0c-4.378-0.115-7.748-1.694-10.109-4.736-2.361-3.05-3.465-7.473-3.313-13.272v0c0.152-5.798 1.489-10.221 4.009-13.269 2.521-3.055 5.971-4.525 10.349-4.41v0c2.899 0.076 5.311 0.8 7.236 2.17 1.931 1.371 3.409 3.274 4.432 5.708v0l-3.413 1.941c-0.646-1.798-1.665-3.251-3.056-4.361-1.385-1.11-3.15-1.693-5.296-1.75v0c-1.479-0.039-2.813 0.206-4.001 0.736-1.181 0.529-2.192 1.303-3.032 2.321-0.834 1.018-1.483 2.239-1.946 3.66-0.464 1.422-0.72 3.022-0.767 4.802v0l-0.134 5.138c-0.093 3.559 0.657 6.366 2.25 8.422 1.593 2.049 3.89 3.113 6.888 3.192v0c2.206 0.058 4.067-0.46 5.583-1.555 1.509-1.101 2.635-2.582 3.378-4.442v0l3.264 2.166c-1.157 2.41-2.773 4.289-4.85 5.635-2.083 1.346-4.574 1.981-7.472 1.904zM162.128 28.213v0c-1.713 0.021-3.28-0.273-4.702-0.883-1.428-0.609-2.652-1.491-3.672-2.645-1.014-1.161-1.815-2.551-2.402-4.171-0.58-1.626-0.883-3.463-0.908-5.509v0c-0.025-2.007 0.233-3.84 0.773-5.5 0.546-1.654 1.312-3.07 2.298-4.248 0.992-1.186 2.194-2.1 3.606-2.745 1.406-0.644 2.965-0.977 4.679-0.997v0c1.72-0.021 3.284 0.273 4.691 0.882 1.408 0.609 2.629 1.494 3.663 2.655 1.034 1.154 1.841 2.551 2.421 4.191 0.587 1.646 0.893 3.473 0.918 5.479v0c0.025 2.047-0.236 3.89-0.782 5.53-0.54 1.633-1.313 3.043-2.319 4.229-1.006 1.179-2.204 2.091-3.596 2.734-1.392 0.644-2.948 0.976-4.668 0.998zM162.085 24.703v0c2.147-0.026 3.888-0.708 5.225-2.045 1.33-1.33 1.979-3.348 1.946-6.054v0l-0.045-3.66c-0.033-2.7-0.731-4.701-2.094-6.004-1.369-1.303-3.127-1.942-5.274-1.916v0c-2.14 0.026-3.878 0.708-5.216 2.045-1.33 1.336-1.979 3.355-1.945 6.054v0l0.045 3.66c0.033 2.706 0.731 4.708 2.094 6.004 1.369 1.303 3.124 1.942 5.264 1.916zM184.556 26.974l-3.956 0.185-1.191-25.483 3.955-0.184 0.194 4.145 0.2-0.009c0.558-1.481 1.383-2.674 2.476-3.58 1.099-0.912 2.603-1.413 4.514-1.502v0c2.63-0.123 4.751 0.629 6.363 2.255 1.611 1.627 2.489 3.985 2.633 7.075v0l0.765 16.352-3.956 0.185-0.732-15.653c-0.214-4.582-2.246-6.782-6.095-6.603v0c-0.792 0.037-1.554 0.173-2.284 0.407-0.73 0.234-1.382 0.562-1.956 0.983-0.574 0.421-1.02 0.945-1.338 1.574-0.318 0.622-0.458 1.346-0.419 2.172v0zM213.052 25.179l-3.946 0.331-2.133-25.42 3.946-0.332 0.347 4.136 0.199-0.017c0.503-1.501 1.283-2.724 2.342-3.668 1.064-0.952 2.549-1.509 4.456-1.669v0c2.624-0.22 4.771 0.453 6.441 2.018 1.67 1.566 2.635 3.89 2.893 6.973v0l1.37 16.312-3.947 0.332-1.31-15.616c-0.384-4.571-2.495-6.695-6.335-6.372v0c-0.791 0.066-1.546 0.23-2.267 0.491-0.721 0.261-1.36 0.613-1.919 1.055-0.558 0.442-0.985 0.982-1.279 1.622-0.295 0.634-0.407 1.362-0.338 2.186v0zM247.153 22.212v0c-1.74 0.214-3.343 0.096-4.81-0.356-1.466-0.451-2.77-1.194-3.911-2.229-1.136-1.042-2.074-2.337-2.816-3.885-0.742-1.554-1.238-3.347-1.488-5.378v0c-0.245-1.992-0.197-3.841 0.143-5.549 0.341-1.701 0.937-3.192 1.787-4.472 0.856-1.288 1.94-2.328 3.254-3.121 1.313-0.793 2.84-1.297 4.579-1.51v0c1.701-0.209 3.257-0.085 4.671 0.372 1.42 0.457 2.67 1.176 3.752 2.158 1.087 0.975 1.975 2.185 2.663 3.632 0.694 1.439 1.152 3.059 1.374 4.858v0l0.229 1.866-18.202 2.24 0.145 1.181c0.133 1.079 0.429 2.063 0.888 2.954 0.459 0.891 1.048 1.641 1.768 2.251 0.72 0.61 1.57 1.053 2.551 1.328 0.981 0.276 2.06 0.341 3.238 0.196v0c1.608-0.198 2.961-0.747 4.059-1.648 1.099-0.894 1.889-2.086 2.371-3.576v0l3.047 1.67c-0.601 1.834-1.702 3.39-3.304 4.669-1.61 1.273-3.606 2.056-5.988 2.349zM244.297-0.993v0c-1.085 0.134-2.045 0.44-2.879 0.918-0.84 0.486-1.536 1.113-2.087 1.879-0.551 0.766-0.95 1.638-1.199 2.616-0.242 0.977-0.295 2.021-0.159 3.133v0l0.043 0.347 13.985-1.721-0.067-0.545c-0.278-2.256-1.115-3.987-2.513-5.192-1.391-1.206-3.099-1.684-5.124-1.435zM274.378 18.288v0c-1.758 0.279-3.387 0.22-4.888-0.177-1.501-0.396-2.819-1.088-3.954-2.076-1.142-0.987-2.096-2.253-2.861-3.798-0.765-1.546-1.308-3.33-1.628-5.351v0c-0.32-2.015-0.355-3.876-0.106-5.583 0.248-1.713 0.762-3.216 1.543-4.507 0.774-1.291 1.813-2.357 3.117-3.198 1.304-0.841 2.835-1.402 4.593-1.681v0c2.502-0.397 4.597-0.169 6.285 0.684 1.688 0.853 3.046 2.099 4.076 3.738v0l-3.006 2.177c-0.668-1.231-1.579-2.122-2.733-2.674-1.154-0.553-2.512-0.705-4.072-0.458v0c-1.172 0.186-2.169 0.537-2.992 1.052-0.816 0.514-1.464 1.15-1.945 1.908-0.479 0.765-0.794 1.635-0.942 2.61-0.142 0.974-0.126 2.015 0.049 3.121v0l0.682 4.296c0.351 2.212 1.231 3.932 2.641 5.16 1.416 1.227 3.28 1.656 5.591 1.29v0c3.154-0.5 5.2-2.327 6.137-5.479v0l3.137 1.456c-0.527 1.953-1.512 3.595-2.955 4.924-1.436 1.328-3.359 2.183-5.769 2.566zM300.186 13.112l-4.856 0.91c-1.363 0.255-2.463 0.068-3.3-0.562-0.837-0.63-1.371-1.561-1.602-2.793v0l-3.287-17.544-4.138 0.775-0.637-3.401 2.339-0.438c0.839-0.157 1.38-0.435 1.624-0.834 0.244-0.398 0.287-1.02 0.129-1.865v0l-0.873-4.659 3.499-0.656 1.302 6.949 5.494-1.029 0.638 3.401-5.495 1.029 3.424 18.272 5.101-0.956z" opacity="1" transform="matrix(1,0,0,1,0,0)" fill="#ffffff" class="wordmark-text-0" data-fill-palette-color="quaternary" id="text-0"></path></svg></g></svg></g><g transform="matrix(1,0,0,1,57.4368,40.36676613080282)"><svg viewBox="0 0 77.1264 6.37954858418937" height="6.37954858418937" width="77.1264"><g transform="matrix(1,0,0,1,0,0)"><svg width="77.1264" viewBox="4 -36.3 559.69 46.3" height="6.37954858418937" data-palette-color="#ffffff"><path d="M20.55-4.2L33.05-34.1 37.25-34.1 37.25 0 33.55 0 33.55-27.25 22.15 0 18.65 0 7.75-27.15 7.75 0 4 0 4-34.1 8.6-34.1 20.55-4.2ZM62.75-23.4L66.15-23.4 66.15 0 62.75 0 62.75-3.45Q61.3-1.45 59.2-0.33 57.1 0.8 54.6 0.8L54.6 0.8Q51.25 0.8 48.6-0.8 45.95-2.4 44.45-5.25 42.95-8.1 42.95-11.75L42.95-11.75Q42.95-15.35 44.42-18.18 45.9-21 48.52-22.6 51.15-24.2 54.5-24.2L54.5-24.2Q57.05-24.2 59.17-23.08 61.3-21.95 62.75-19.9L62.75-19.9 62.75-23.4ZM54.5-2.3Q56.9-2.3 58.77-3.5 60.65-4.7 61.7-6.85 62.75-9 62.75-11.7L62.75-11.7Q62.75-14.4 61.7-16.55 60.65-18.7 58.77-19.9 56.9-21.1 54.5-21.1L54.5-21.1Q52.15-21.1 50.3-19.9 48.45-18.7 47.4-16.57 46.35-14.45 46.35-11.75L46.35-11.75Q46.35-9 47.4-6.85 48.45-4.7 50.3-3.5 52.15-2.3 54.5-2.3L54.5-2.3ZM90.7 0L86.9 0 78.7-12.05 75.84-9.3 75.84 0 72.45 0 72.45-36.3 75.84-36.3 75.84-13.6 86.09-23.4 90.5-23.4 81.05-14.3 90.7 0ZM99.49 0L96.09 0 96.09-23.4 99.49-23.4 99.49 0ZM97.79-27.95Q96.64-27.95 95.87-28.75 95.09-29.55 95.09-30.7L95.09-30.7Q95.09-31.8 95.87-32.58 96.64-33.35 97.79-33.35L97.79-33.35Q98.89-33.35 99.69-32.58 100.49-31.8 100.49-30.65L100.49-30.65Q100.49-29.55 99.69-28.75 98.89-27.95 97.79-27.95L97.79-27.95ZM118.79-24.2Q121.24-24.2 123.32-23.2 125.39-22.2 126.62-20.25 127.84-18.3 127.84-15.65L127.84-15.65 127.84 0 124.44 0 124.44-14.15Q124.44-21.1 118.24-21.1L118.24-21.1Q114.64-21.1 112.84-18.55 111.04-16 111.04-11.7L111.04-11.7 111.04 0 107.64 0 107.64-23.4 111.04-23.4 111.04-19.5Q112.24-21.75 114.22-22.98 116.19-24.2 118.79-24.2L118.79-24.2ZM152.84-23.4L156.24-23.4 156.24-0.9Q156.24 2.25 154.94 4.73 153.64 7.2 151.29 8.6 148.94 10 145.94 10L145.94 10 136.24 10 136.24 6.9 145.94 6.9Q148.99 6.9 150.91 4.7 152.84 2.5 152.84-0.9L152.84-0.9 152.84-3.45Q151.39-1.45 149.29-0.33 147.19 0.8 144.69 0.8L144.69 0.8Q141.34 0.8 138.69-0.8 136.04-2.4 134.54-5.25 133.04-8.1 133.04-11.75L133.04-11.75Q133.04-15.35 134.51-18.18 135.99-21 138.61-22.6 141.24-24.2 144.59-24.2L144.59-24.2Q147.14-24.2 149.26-23.08 151.39-21.95 152.84-19.9L152.84-19.9 152.84-23.4ZM144.59-2.3Q146.99-2.3 148.86-3.5 150.74-4.7 151.79-6.85 152.84-9 152.84-11.7L152.84-11.7Q152.84-14.4 151.79-16.55 150.74-18.7 148.86-19.9 146.99-21.1 144.59-21.1L144.59-21.1Q142.24-21.1 140.39-19.9 138.54-18.7 137.49-16.57 136.44-14.45 136.44-11.75L136.44-11.75Q136.44-9 137.49-6.85 138.54-4.7 140.39-3.5 142.24-2.3 144.59-2.3L144.59-2.3ZM183.83 0.8Q180.43 0.8 177.78-0.8 175.13-2.4 173.63-5.25 172.13-8.1 172.13-11.7L172.13-11.7Q172.13-15.3 173.61-18.15 175.08-21 177.73-22.6 180.38-24.2 183.73-24.2L183.73-24.2Q186.58-24.2 188.71-22.98 190.83-21.75 192.58-19.5L192.58-19.5 190.08-17.55Q187.63-21.1 183.73-21.1L183.73-21.1Q181.38-21.1 179.51-19.9 177.63-18.7 176.58-16.55 175.53-14.4 175.53-11.7L175.53-11.7Q175.53-9 176.58-6.85 177.63-4.7 179.51-3.5 181.38-2.3 183.73-2.3L183.73-2.3Q186.13-2.3 187.68-3.13 189.23-3.95 190.48-5.55L190.48-5.55 193.13-3.7Q191.48-1.65 189.06-0.43 186.63 0.8 183.83 0.8L183.83 0.8ZM201.18 0L197.78 0 197.78-36.3 201.18-36.3 201.18 0ZM226.03-23.4L229.43-23.4 229.43 0 226.03 0 226.03-3.45Q224.58-1.45 222.48-0.33 220.38 0.8 217.88 0.8L217.88 0.8Q214.53 0.8 211.88-0.8 209.23-2.4 207.73-5.25 206.23-8.1 206.23-11.75L206.23-11.75Q206.23-15.35 207.7-18.18 209.18-21 211.8-22.6 214.43-24.2 217.78-24.2L217.78-24.2Q220.33-24.2 222.45-23.08 224.58-21.95 226.03-19.9L226.03-19.9 226.03-23.4ZM217.78-2.3Q220.18-2.3 222.05-3.5 223.93-4.7 224.98-6.85 226.03-9 226.03-11.7L226.03-11.7Q226.03-14.4 224.98-16.55 223.93-18.7 222.05-19.9 220.18-21.1 217.78-21.1L217.78-21.1Q215.43-21.1 213.58-19.9 211.73-18.7 210.68-16.57 209.63-14.45 209.63-11.75L209.63-11.75Q209.63-9 210.68-6.85 211.73-4.7 213.58-3.5 215.43-2.3 217.78-2.3L217.78-2.3ZM243.98 0.8Q240.58 0.8 238-0.65 235.43-2.1 234.08-4.75L234.08-4.75 237.13-6.25Q238.98-2.3 244.38-2.3L244.38-2.3Q246.98-2.3 248.68-3.25 250.38-4.2 250.38-6.2L250.38-6.2Q250.38-8.25 249-9.25 247.63-10.25 244.18-10.55L244.18-10.55Q239.38-10.95 237.3-12.7 235.23-14.45 235.23-17.35L235.23-17.35Q235.23-20.6 237.58-22.4 239.93-24.2 244.03-24.2L244.03-24.2Q250.98-24.2 253.48-18.7L253.48-18.7 250.43-17.2Q249.58-19.2 247.95-20.15 246.33-21.1 243.78-21.1L243.78-21.1Q241.18-21.1 239.8-20.15 238.43-19.2 238.43-17.45L238.43-17.45Q238.43-15.8 239.9-14.78 241.38-13.75 244.98-13.45L244.98-13.45Q249.43-13.05 251.6-11.28 253.78-9.5 253.78-6.6L253.78-6.6Q253.78-4.25 252.43-2.58 251.08-0.9 248.83-0.05 246.58 0.8 243.98 0.8L243.98 0.8ZM267.17 0.8Q263.77 0.8 261.2-0.65 258.62-2.1 257.27-4.75L257.27-4.75 260.32-6.25Q262.17-2.3 267.57-2.3L267.57-2.3Q270.17-2.3 271.87-3.25 273.57-4.2 273.57-6.2L273.57-6.2Q273.57-8.25 272.2-9.25 270.82-10.25 267.37-10.55L267.37-10.55Q262.57-10.95 260.5-12.7 258.42-14.45 258.42-17.35L258.42-17.35Q258.42-20.6 260.77-22.4 263.12-24.2 267.22-24.2L267.22-24.2Q274.17-24.2 276.67-18.7L276.67-18.7 273.62-17.2Q272.77-19.2 271.15-20.15 269.52-21.1 266.97-21.1L266.97-21.1Q264.37-21.1 263-20.15 261.62-19.2 261.62-17.45L261.62-17.45Q261.62-15.8 263.1-14.78 264.57-13.75 268.17-13.45L268.17-13.45Q272.62-13.05 274.8-11.28 276.97-9.5 276.97-6.6L276.97-6.6Q276.97-4.25 275.62-2.58 274.27-0.9 272.02-0.05 269.77 0.8 267.17 0.8L267.17 0.8ZM293.17-10.9L281.82-10.9 281.82-13.7 293.17-13.7 293.17-10.9ZM324.02-24.2Q327.27-24.2 329.42-21.93 331.57-19.65 331.57-15.65L331.57-15.65 331.57 0 328.17 0 328.17-14.15Q328.17-17.85 326.77-19.48 325.37-21.1 323.12-21.1L323.12-21.1Q320.37-21.1 318.84-18.98 317.32-16.85 317.07-13.2L317.07-13.2 317.07 0 313.67 0 313.67-14.15Q313.67-17.85 312.27-19.48 310.87-21.1 308.62-21.1L308.62-21.1Q305.57-21.1 304.04-18.55 302.52-16 302.52-11.7L302.52-11.7 302.52 0 299.12 0 299.12-23.4 302.52-23.4 302.52-19.75Q303.67-21.9 305.44-23.05 307.22-24.2 309.52-24.2L309.52-24.2Q312.07-24.2 313.97-22.83 315.87-21.45 316.62-18.9L316.62-18.9Q317.72-21.4 319.62-22.8 321.52-24.2 324.02-24.2L324.02-24.2ZM355.97-23.4L359.37-23.4 359.37 0 355.97 0 355.97-3.45Q354.52-1.45 352.42-0.33 350.32 0.8 347.82 0.8L347.82 0.8Q344.47 0.8 341.82-0.8 339.17-2.4 337.67-5.25 336.17-8.1 336.17-11.75L336.17-11.75Q336.17-15.35 337.64-18.18 339.12-21 341.74-22.6 344.37-24.2 347.72-24.2L347.72-24.2Q350.27-24.2 352.39-23.08 354.52-21.95 355.97-19.9L355.97-19.9 355.97-23.4ZM347.72-2.3Q350.12-2.3 351.99-3.5 353.87-4.7 354.92-6.85 355.97-9 355.97-11.7L355.97-11.7Q355.97-14.4 354.92-16.55 353.87-18.7 351.99-19.9 350.12-21.1 347.72-21.1L347.72-21.1Q345.37-21.1 343.52-19.9 341.67-18.7 340.62-16.57 339.57-14.45 339.57-11.75L339.57-11.75Q339.57-9 340.62-6.85 341.67-4.7 343.52-3.5 345.37-2.3 347.72-2.3L347.72-2.3ZM383.91 0L380.11 0 371.91-12.05 369.06-9.3 369.06 0 365.66 0 365.66-36.3 369.06-36.3 369.06-13.6 379.31-23.4 383.71-23.4 374.26-14.3 383.91 0ZM392.71 0L389.31 0 389.31-23.4 392.71-23.4 392.71 0ZM391.01-27.95Q389.86-27.95 389.09-28.75 388.31-29.55 388.31-30.7L388.31-30.7Q388.31-31.8 389.09-32.58 389.86-33.35 391.01-33.35L391.01-33.35Q392.11-33.35 392.91-32.58 393.71-31.8 393.71-30.65L393.71-30.65Q393.71-29.55 392.91-28.75 392.11-27.95 391.01-27.95L391.01-27.95ZM412.01-24.2Q414.46-24.2 416.53-23.2 418.61-22.2 419.83-20.25 421.06-18.3 421.06-15.65L421.06-15.65 421.06 0 417.66 0 417.66-14.15Q417.66-21.1 411.46-21.1L411.46-21.1Q407.86-21.1 406.06-18.55 404.26-16 404.26-11.7L404.26-11.7 404.26 0 400.86 0 400.86-23.4 404.26-23.4 404.26-19.5Q405.46-21.75 407.43-22.98 409.41-24.2 412.01-24.2L412.01-24.2ZM446.06-23.4L449.46-23.4 449.46-0.9Q449.46 2.25 448.16 4.73 446.86 7.2 444.51 8.6 442.16 10 439.16 10L439.16 10 429.46 10 429.46 6.9 439.16 6.9Q442.21 6.9 444.13 4.7 446.06 2.5 446.06-0.9L446.06-0.9 446.06-3.45Q444.61-1.45 442.51-0.33 440.41 0.8 437.91 0.8L437.91 0.8Q434.56 0.8 431.91-0.8 429.26-2.4 427.76-5.25 426.26-8.1 426.26-11.75L426.26-11.75Q426.26-15.35 427.73-18.18 429.21-21 431.83-22.6 434.46-24.2 437.81-24.2L437.81-24.2Q440.36-24.2 442.48-23.08 444.61-21.95 446.06-19.9L446.06-19.9 446.06-23.4ZM437.81-2.3Q440.21-2.3 442.08-3.5 443.96-4.7 445.01-6.85 446.06-9 446.06-11.7L446.06-11.7Q446.06-14.4 445.01-16.55 443.96-18.7 442.08-19.9 440.21-21.1 437.81-21.1L437.81-21.1Q435.46-21.1 433.61-19.9 431.76-18.7 430.71-16.57 429.66-14.45 429.66-11.75L429.66-11.75Q429.66-9 430.71-6.85 431.76-4.7 433.61-3.5 435.46-2.3 437.81-2.3L437.81-2.3ZM477-24.2Q480.15-24.2 482.7-22.65 485.25-21.1 486.7-18.43 488.15-15.75 488.15-12.45L488.15-12.45Q488.15-11.5 488.1-11L488.1-11 468.85-11Q469.05-7.4 471.2-4.85 473.35-2.3 477.05-2.3L477.05-2.3Q480.05-2.3 482.03-3.43 484-4.55 485.2-6.55L485.2-6.55 487.9-4.75Q486.25-2.15 483.55-0.68 480.85 0.8 477.15 0.8L477.15 0.8Q473.75 0.8 471.1-0.8 468.45-2.4 466.95-5.25 465.45-8.1 465.45-11.7L465.45-11.7Q465.45-15.3 466.93-18.15 468.4-21 471.03-22.6 473.65-24.2 477-24.2L477-24.2ZM469.05-13.8L484.75-13.8Q484.25-17.45 482.3-19.28 480.35-21.1 477-21.1L477-21.1Q473.75-21.1 471.68-19.03 469.6-16.95 469.05-13.8L469.05-13.8ZM511.5-23.4L514.9-23.4 514.9 0 511.5 0 511.5-3.45Q510.05-1.45 507.95-0.33 505.85 0.8 503.35 0.8L503.35 0.8Q500 0.8 497.35-0.8 494.7-2.4 493.2-5.25 491.7-8.1 491.7-11.75L491.7-11.75Q491.7-15.35 493.17-18.18 494.65-21 497.27-22.6 499.9-24.2 503.25-24.2L503.25-24.2Q505.8-24.2 507.92-23.08 510.05-21.95 511.5-19.9L511.5-19.9 511.5-23.4ZM503.25-2.3Q505.65-2.3 507.52-3.5 509.4-4.7 510.45-6.85 511.5-9 511.5-11.7L511.5-11.7Q511.5-14.4 510.45-16.55 509.4-18.7 507.52-19.9 505.65-21.1 503.25-21.1L503.25-21.1Q500.9-21.1 499.05-19.9 497.2-18.7 496.15-16.57 495.1-14.45 495.1-11.75L495.1-11.75Q495.1-9 496.15-6.85 497.2-4.7 499.05-3.5 500.9-2.3 503.25-2.3L503.25-2.3ZM529.44 0.8Q526.04 0.8 523.47-0.65 520.89-2.1 519.54-4.75L519.54-4.75 522.59-6.25Q524.44-2.3 529.84-2.3L529.84-2.3Q532.44-2.3 534.14-3.25 535.84-4.2 535.84-6.2L535.84-6.2Q535.84-8.25 534.47-9.25 533.09-10.25 529.64-10.55L529.64-10.55Q524.84-10.95 522.77-12.7 520.69-14.45 520.69-17.35L520.69-17.35Q520.69-20.6 523.04-22.4 525.39-24.2 529.5-24.2L529.5-24.2Q536.44-24.2 538.94-18.7L538.94-18.7 535.89-17.2Q535.04-19.2 533.42-20.15 531.79-21.1 529.25-21.1L529.25-21.1Q526.64-21.1 525.27-20.15 523.89-19.2 523.89-17.45L523.89-17.45Q523.89-15.8 525.37-14.78 526.84-13.75 530.44-13.45L530.44-13.45Q534.89-13.05 537.07-11.28 539.25-9.5 539.25-6.6L539.25-6.6Q539.25-4.25 537.89-2.58 536.54-0.9 534.29-0.05 532.04 0.8 529.44 0.8L529.44 0.8ZM553.04-4L560.49-23.4 563.69-23.4 551.04 10 547.64 10 551.34 0.45 541.74-23.4 545.29-23.4 553.04-4Z" opacity="1" transform="matrix(1,0,0,1,0,0)" fill="#ffffff" class="slogan-text-1" data-fill-palette-color="quaternary" id="text-1"></path></svg></g></svg></g></svg></g></svg></g><g transform="matrix(1,0,0,1,67.50889065871296,0)"><svg viewBox="0 0 56.98221868257409 46.746314714992195" height="46.746314714992195" width="56.98221868257409"><g><svg xmlns="http://www.w3.org/2000/svg" xmlns:xlink="http://www.w3.org/1999/xlink" version="1.1" x="0" y="0" viewBox="0 0 357.0430758606915 292.90625" style="enable-background:new 0 0 357.042 292.906;" xml:space="preserve" width="56.98221868257409" height="46.746314714992195" class="icon-icon-0" data-fill-palette-color="quaternary" id="icon-0"><g fill="#ffffff" data-fill-palette-color="quaternary"><path d="M124.547 5h213.001v143.002H124.547V97.225c-1.707 0.656-3.375 1.222-4.999 1.703V161h223V0h-223v78.687c1.671-0.72 3.337-1.541 4.999-2.466V5z" fill="#ffffff" data-fill-palette-color="quaternary"></path><rect x="230.882" y="140" width="16.666" height="4" fill="#ffffff" data-fill-palette-color="quaternary"></rect><rect x="253.215" y="140" width="16.666" height="4" fill="#ffffff" data-fill-palette-color="quaternary"></rect><path d="M113.714 193.695L95.113 97.959c0.396 0.055 0.806 0.104 1.219 0.151 1.85 0.21 3.848 0.344 6.002 0.346 0.457 0 0.896-0.006 1.318-0.015 0.003 0 0.006-0.001 0.009-0.001 0.009 0 0.019 0 0.027 0 13.609-0.275 32.326-6.118 51.234-26.213 2-2.114 2.301-5.219 0.952-7.633l8.104-8.296-2.861-2.795-8.176 8.371c-2.467-1.149-5.492-0.663-7.465 1.423-16.99 17.873-31.744 21.815-42.068 22.146-0.002 0-0.004 0-0.006 0-0.385 0.007-0.741 0.014-1.068 0.014-1.973 0-3.763-0.146-5.37-0.366-2.065-0.282-3.821-0.688-5.188-1.089-1.217-0.355-2.133-0.703-2.705-0.941-0.288-0.119-0.488-0.211-0.598-0.263-0.041-0.019-0.068-0.032-0.083-0.041-0.009-0.004-0.011-0.006-0.011-0.006v0.001l-0.602-0.317-0.715-0.19c-0.109-0.022-1.301-0.342-3.201-0.733-0.199 9.573-6.152 17.258-13.48 17.258-7.33 0-13.281-7.685-13.48-17.257-1.24 0.255-2.188 0.481-2.717 0.611-2.17 0.349-10.283 2.489-18.719 12.364-4.918 5.73-9.934 13.936-14.238 25.728l-4.067-2.456L0 146.164l12.979 7.841c-0.262 1.713-0.515 3.457-0.752 5.253-0.471 3.559 2.035 6.824 5.594 7.295 0.289 0.038 0.576 0.057 0.86 0.057 3.099 0.001 5.785-2.226 6.36-5.318l7.43 4.488-5.424 27.916c0 0 7.91 4.101 21.666 6.628v49.901c0 5.523 4.477 10 10 10 5.521 0 10-4.476 10-10v-47.977c0.554 0.008 1.105 0.017 1.668 0.017s1.113-0.009 1.666-0.017v47.977c0 5.523 4.476 10 10 10 5.52 0 10-4.476 10-10v-49.9C105.803 197.797 113.714 193.695 113.714 193.695zM31.634 130.008l23.262 14.05L40.84 167.33l-15.325-9.258C27.127 146.849 29.256 137.606 31.634 130.008zM13.489 150.808l-9.37-5.66 14.057-23.269 2.035 1.229C17.602 130.819 15.297 139.963 13.489 150.808zM44.478 103.979l-5.266 27.102-6.619-3.998C36.371 115.976 40.662 108.694 44.478 103.979zM75.025 109.014h14.5v5h-14.5V109.014z" fill="#ffffff" data-fill-palette-color="quaternary"></path><rect x="31.705" y="150.431" transform="matrix(0.517 -0.856 0.856 0.517 -109.9199 108.3772)" width="18.745" height="2.325" fill="#ffffff" data-fill-palette-color="quaternary"></rect><rect x="27.722" y="148.026" transform="matrix(0.5168 -0.8561 0.8561 0.5168 -109.7952 103.8409)" width="18.746" height="2.326" fill="#ffffff" data-fill-palette-color="quaternary"></rect><path d="M82.034 72.089c4.522-2.919 7.964-7.524 9.28-13.181 2.692-11.563-4.498-23.117-16.059-25.811-11.562-2.691-23.117 4.5-25.811 16.061-2.115 9.082 1.869 18.157 9.278 22.938 2.024 1.307 4.302 2.295 6.782 2.872C71.412 76.344 77.313 75.136 82.034 72.089z" fill="#ffffff" data-fill-palette-color="quaternary"></path><path d="M174.969 244.92c-1.76-1.491-3.589-2.771-5.545-3.77-1.967-0.974-4.047-1.768-6.706-1.801-0.264 0-0.522 0.02-0.778 0.051h-32.291l0 0c-0.254-0.03-0.51-0.05-0.771-0.05v-0.002c-3.533 0.078-6.096 1.364-8.624 2.891-3.725 2.364-7.205 5.716-10.054 9.687-2.783 3.987-5.08 8.571-5.148 14.019-0.007 2.245 0.471 4.652 1.615 6.876 1.707 3.371 4.829 5.983 8.552 7.549 0.513 0.218 1.04 0.417 1.579 0.605v-24.212c0-6.617 5.383-12 12-12h33.998c6.617 0 12.002 5.383 12.002 12v24.206c1.849-0.65 3.537-1.469 5.068-2.503 2.15-1.466 3.928-3.42 5.061-5.647 1.145-2.222 1.622-4.629 1.617-6.874-0.019-3.632-1.111-6.884-2.595-9.824C181.689 251.72 178.467 247.911 174.969 244.92z" fill="#ffffff" data-fill-palette-color="quaternary"></path><circle cx="145.798" cy="214.777" r="21" fill="#ffffff" data-fill-palette-color="quaternary"></circle><path d="M172.797 256.764c0-5.522-4.478-10-10-10h-34c-5.523 0-10 4.479-10 10v32c0 5.523 54 5.523 54 0V256.764z" fill="#ffffff" data-fill-palette-color="quaternary"></path><path d="M345.469 244.92c-1.76-1.491-3.588-2.771-5.545-3.77-1.969-0.974-4.048-1.768-6.708-1.801-0.264 0-0.522 0.02-0.777 0.051h-32.29c-0.254-0.03-0.51-0.05-0.771-0.05v-0.002c-3.532 0.078-6.096 1.364-8.623 2.891-3.725 2.364-7.205 5.716-10.054 9.687-2.782 3.987-5.08 8.571-5.151 14.019-0.004 2.245 0.473 4.652 1.617 6.876 1.707 3.371 4.828 5.983 8.553 7.549 0.512 0.218 1.039 0.418 1.578 0.605v-24.212c0-6.617 5.383-12 12-12h33.998c6.617 0 12.002 5.383 12.002 12v24.206c1.849-0.65 3.537-1.469 5.069-2.503 2.15-1.466 3.927-3.42 5.062-5.647 1.144-2.222 1.621-4.629 1.614-6.874-0.017-3.632-1.112-6.884-2.593-9.824C352.19 251.72 348.965 247.911 345.469 244.92z" fill="#ffffff" data-fill-palette-color="quaternary"></path><circle cx="316.298" cy="214.777" r="21" fill="#ffffff" data-fill-palette-color="quaternary"></circle><path d="M343.297 256.764c0-5.522-4.478-10-10-10h-34c-5.523 0-10 4.479-10 10v32c0 5.523 54 5.523 54 0V256.764z" fill="#ffffff" data-fill-palette-color="quaternary"></path><path d="M260.218 244.92c-1.76-1.491-3.589-2.771-5.545-3.77-1.967-0.974-4.046-1.768-6.706-1.801-0.264 0-0.521 0.02-0.777 0.051h-32.291c-0.253-0.03-0.51-0.05-0.771-0.05v-0.002c-3.534 0.078-6.095 1.364-8.624 2.891-3.725 2.364-7.205 5.716-10.055 9.687-2.781 3.987-5.08 8.571-5.15 14.019-0.004 2.245 0.471 4.652 1.615 6.876 1.711 3.371 4.83 5.983 8.555 7.549 0.512 0.218 1.04 0.417 1.578 0.605v-24.212c0-6.617 5.383-12 12-12h33.998c6.617 0 12.002 5.383 12.002 12v24.206c1.85-0.65 3.538-1.469 5.07-2.503 2.15-1.466 3.928-3.42 5.059-5.647 1.147-2.222 1.621-4.629 1.617-6.874-0.018-3.632-1.112-6.884-2.596-9.824C266.939 251.72 263.715 247.911 260.218 244.92z" fill="#ffffff" data-fill-palette-color="quaternary"></path><circle cx="231.048" cy="214.777" r="21" fill="#ffffff" data-fill-palette-color="quaternary"></circle><path d="M258.047 256.764c0-5.522-4.478-10-10-10h-34c-5.523 0-10 4.479-10 10v32c0 5.523 54 5.523 54 0V256.764z" fill="#ffffff" data-fill-palette-color="quaternary"></path></g></svg></g></svg></g><g></g></svg></g></svg></g></svg></g><defs></defs></svg><rect width="320" height="360" fill="none" stroke="none" visibility="hidden"></rect></g></svg></g></svg>