<svg width="784" height="740" viewBox="0 0 784 740" fill="none" xmlns="http://www.w3.org/2000/svg">
<path fill-rule="evenodd" clip-rule="evenodd" d="M771.911 160.53C771.314 160.095 769.897 159.941 769.237 159.811C766.496 159.271 763.673 159.036 760.879 159.036C752.262 159.049 743.506 159.894 735.033 161.358C729.654 162.287 723.15 165.415 717.799 163.716C708.476 160.757 699.053 160.902 690.208 165.127C682.121 168.99 675.982 176.327 672.399 184.254C671.859 185.451 669.666 189.856 669.045 192.825C668.78 193.432 668.525 194.043 668.295 194.663C667.642 196.425 667.057 198.217 666.514 200.013C666.281 200.779 665.697 202.471 666.391 202.798C665.283 204.843 664.3 206.951 663.482 209.128C661.102 215.458 658.5 222.401 657.663 229.11C657.354 231.594 657.342 234.092 657.629 236.581C657.772 237.812 657.713 240.285 658.547 241.221C660.317 243.206 661.226 240.427 661.026 239.104C659.502 229.017 662.445 219.544 665.932 210.063C668.187 203.931 671.892 198.322 676.042 193.242C679.401 189.131 683.004 185.892 687.609 183.166C693.239 179.832 699.259 177.137 705.224 174.434C709.147 172.655 713.074 170.924 717.107 169.392C718.003 169.05 719.414 168.176 720.408 168.173C722.511 168.165 725.49 169.717 727.521 170.294C734.201 172.193 740.966 174.624 747.869 175.594C752.297 176.217 756.445 175.516 760.586 174.041C761.01 173.891 761.719 173.503 762.588 172.95C765.662 171.767 768.571 170.279 771.103 168.131C772.562 166.894 773.886 165.295 775.093 163.832C775.455 163.394 775.614 162.893 775.62 162.416C775.893 162.273 776.075 162.106 776.116 161.911C776.417 160.471 773.67 160.444 771.911 160.53Z" fill="#89C5CC"/>
<path fill-rule="evenodd" clip-rule="evenodd" d="M71.9842 280.598C70.2938 281.967 68.6359 283.365 67.0185 284.82C65.7858 285.929 63.6043 287.256 63.1617 288.936C62.7017 290.681 64.154 292.315 65.3013 293.371C71.3682 298.952 78.1997 302.726 86.6064 303.353C99.5508 304.32 110.816 301.014 122.047 294.51C129.936 289.941 135.162 283.183 136.303 274.057C145.699 277.962 154.786 283.344 162.507 289.95C166.318 293.209 169.599 296.82 172.635 300.823C174.578 303.387 176.459 305.993 178.204 308.698C178.963 309.874 179.734 311.958 180.986 312.635C182.456 313.431 184.233 312.184 184.161 310.549C184.1 309.189 182.631 307.611 181.944 306.499C180.803 304.652 179.645 302.817 178.425 301.021C176.452 298.113 174.413 295.246 172.188 292.524C167.19 286.41 160.829 281.359 154.236 277.052C141.587 268.789 127.705 263.584 112.314 263.143C102.85 262.871 94.8892 266.105 86.7962 270.933C81.7576 273.939 76.5564 276.895 71.9842 280.598Z" fill="#DDE3E9"/>
<path fill-rule="evenodd" clip-rule="evenodd" d="M194.744 240.632C184.882 230.475 174.986 220.446 163.967 211.502C157.474 206.233 150.63 201.441 143.928 196.444C144.702 197.121 145.46 197.818 146.2 198.532C144.108 197.112 141.369 196.309 139.151 194.995C136.677 193.529 134.312 191.851 131.993 190.161C127.465 186.861 123.005 183.499 118.351 180.372C113.165 176.888 107.791 173.669 102.517 170.317C98.0413 167.471 93.5106 164.357 88.7223 162.031C86.1126 160.763 83.4967 159.26 80.8762 157.938C79.9992 157.496 71.1002 151.876 71.1227 151.86C71.6146 151.489 76.0927 153.593 76.7852 153.876C78.8082 154.702 80.7428 155.691 82.6878 156.676C81.6203 154.57 80.7752 152.358 80.3152 150.029C80.1731 149.31 79.0346 144.078 79.6172 143.639C79.9081 143.419 82.7473 152.782 82.8927 153.682C83.0108 154.413 82.9934 155.466 83.2328 156.158C83.6192 157.276 83.5997 156.938 84.4509 157.568C86.0111 158.723 88.0821 159.444 89.7706 160.409C90.6812 160.918 93.5003 162.933 95.1984 163.508C100.336 166.003 105.544 169.843 110.426 173.03C109.145 170.622 108.169 168.104 107.458 165.466C107.289 164.839 105.465 159.22 105.907 158.886C106.406 158.511 109.882 167.093 110.088 167.906C110.471 169.415 110.55 171.095 111.029 172.563C111.555 174.175 113.195 174.746 114.674 175.686C120.114 179.142 125.367 182.815 130.533 186.656C136.169 176.632 129.67 164.527 124.193 156.116C120.245 150.054 114.93 144.857 109.318 140.32C101.828 134.265 93.2587 129.427 84.7 125.002C74.7274 119.847 63.9488 116.652 52.7431 115.176C46.8823 114.404 40.8864 114.426 34.9664 114.673C32.0744 114.794 29.2986 115.177 26.5272 116.12C25.2781 116.546 24.0709 117.082 22.8945 117.683C22.0007 118.139 19.8384 118.621 19.3246 119.301C15.0941 124.807 12.9298 130.294 13.2603 137.213C13.5728 143.763 15.6414 150.316 18.4487 156.158C21.5751 162.664 25.5961 168.568 30.8548 173.524C34.867 177.305 39.3526 180.596 43.8087 183.843C59.6575 195.393 79.751 205.439 100.278 202.858C106.923 202.023 113.242 199.699 119.148 196.542C120.54 195.798 121.923 195.045 123.237 194.166C124.123 193.574 126.49 190.906 127.381 190.809C128.602 190.676 131.233 193.16 132.378 193.916C141.085 199.663 149.563 205.721 157.864 212.025C166.695 218.732 175.093 225.895 183.244 233.394C186.71 236.584 190.155 239.781 193.521 243.078C194.305 243.845 196.221 246.67 197.642 246.798C198.541 246.879 199.146 246.112 199.018 245.28C198.795 243.835 195.754 241.672 194.744 240.632Z" fill="#C1DEE2"/>
<path fill-rule="evenodd" clip-rule="evenodd" d="M761.557 201.213C757.737 200.379 753.519 200.443 749.628 200.512C728.759 200.795 708.266 210.676 694.929 226.463C683.574 239.903 680.452 256.613 678.209 273.504C677.987 275.181 677.892 276.848 677.766 278.528C677.739 278.889 677.699 279.211 677.656 279.514C676.774 280.302 676.311 281.222 676.833 282.232C674.89 286.485 673.246 290.845 671.835 295.343C667.684 308.581 663.461 322.07 666.062 335.991C666.67 328.33 667.948 320.497 669.477 312.962C669.565 312.53 669.66 312.101 669.759 311.673C669.769 311.628 669.779 311.583 669.789 311.538C670.33 309.231 671.034 306.992 671.889 304.789C671.898 304.765 671.907 304.741 671.916 304.718C672.029 304.428 672.149 304.139 672.268 303.851C672.513 303.254 672.764 302.658 673.031 302.065C673.122 301.863 673.208 301.66 673.292 301.454C674.537 298.401 675.063 294.961 676.179 291.802C676.446 291.084 676.725 290.369 677.018 289.657C677.035 289.615 677.052 289.573 677.07 289.532C677.86 287.616 678.733 285.724 679.657 283.852C680.158 283.475 680.427 282.539 680.859 281.689C680.949 281.522 681.648 280.404 681.857 279.761C682.4 278.709 682.942 277.657 683.49 276.607C683.473 276.613 683.457 276.619 683.44 276.625C683.988 275.617 684.538 274.613 685.083 273.613C685.203 273.394 685.324 273.174 685.445 272.954C685.641 272.603 685.837 272.252 686.032 271.903C687.86 268.632 689.798 265.426 691.811 262.26C692.53 261.13 694.246 259.51 694.575 258.241C694.587 258.194 694.59 258.15 694.597 258.104C698.965 251.97 703.993 246.312 710.023 241.828C709.294 242.616 707.745 245.29 707.335 245.82C706.082 247.44 704.721 248.949 703.355 250.476C700.909 253.212 698.52 256.035 696.398 259.02C692.517 264.478 689.168 270.223 686.003 276.083C685.973 276.118 685.94 276.15 685.912 276.185C684.321 278.146 683.32 281.11 682.174 283.353C686.706 281.254 691.717 279.887 696.369 278.023C701.007 276.165 705.519 274.096 709.875 271.666C715.664 268.437 721.67 264.791 727.14 260.665C733.409 256.776 738.677 251.424 743.327 245.807C748.829 239.162 753.871 232.458 756.989 224.389C758.521 220.424 759.726 216.29 760.44 212.107C760.471 211.925 760.511 211.727 760.555 211.521C761.285 210.077 761.939 208.6 762.487 207.089C763.358 204.692 765.415 202.056 761.557 201.213Z" fill="#69A1AC"/>
<path fill-rule="evenodd" clip-rule="evenodd" d="M114.246 229.29C113.05 227.994 111.706 226.825 110.127 225.991C109.728 225.781 106.757 224.369 106.563 224.678C106.112 225.4 113.887 228.876 114.246 229.29ZM128.337 220.634C128.327 220.689 129.358 222.437 129.638 222.975C130.236 224.118 130.787 225.283 131.306 226.451C130.538 224.389 129.749 222.476 128.337 220.634ZM56.2731 234.868C55.2806 235.187 54.0873 233.927 55.3746 233.617C56.4163 233.368 56.3652 233.309 56.8329 232.47C57.2127 231.789 57.4467 230.958 57.78 230.243C58.4869 228.726 59.2888 227.28 60.2731 225.925C62.3827 223.02 64.953 220.516 67.8357 218.407C72.8667 214.726 78.5076 211.361 84.4914 209.671C94.0058 206.983 104.834 206.817 114.364 208.681C120.265 209.835 125.659 211.841 129.578 216.593C131.536 218.967 133.074 221.749 133.746 224.813C133.921 225.614 133.888 226.504 134.108 227.288C134.446 228.493 134.297 228.173 135.706 228.407C137.246 228.663 138.784 228.924 140.322 229.19C144.348 229.887 148.397 230.626 152.32 231.756C153.611 232.128 154.874 232.582 156.108 233.111C157.041 233.509 160.756 234.762 161.207 235.974C161.959 237.991 159.441 237.077 158.658 236.638C157.973 236.253 157.27 235.894 156.556 235.564C154.758 234.732 152.886 234.088 150.971 233.576C148.901 233.023 146.79 232.609 144.686 232.196C142.724 231.81 140.755 231.459 138.784 231.124C137.688 230.938 136.592 230.757 135.496 230.576C135.121 230.514 134.461 230.189 134.511 230.676C132.206 230.232 129.714 230.296 127.366 230.174C124.491 230.024 121.605 229.901 118.72 229.991C116.639 230.056 114.557 230.192 112.487 230.472C111.277 230.635 110.087 230.874 108.9 231.177C108.248 231.343 105.677 231.696 105.322 232.264C105.474 232.02 108.312 232.257 108.673 232.243C110.117 232.189 111.55 232.046 112.989 231.885C115.66 231.586 118.332 231.431 121.011 231.453C121 231.923 119.171 232.761 118.724 233.073C117.722 233.772 116.763 234.534 115.868 235.371C114.292 236.843 112.404 238.668 111.313 240.413C111.635 239.899 113.22 239.23 113.783 238.837C114.684 238.207 115.567 237.535 116.403 236.817C117.174 236.154 117.894 235.438 118.601 234.707C119.309 233.975 120.27 232.453 121.2 231.965C121.256 231.936 121.661 232.256 121.891 232.147C122.123 232.038 122.413 231.489 122.472 231.467C123.337 231.133 124.981 231.548 125.891 231.59C128.251 231.699 130.609 231.841 132.968 231.971C133.698 232.011 134.319 231.845 134.595 232.384C134.889 232.959 134.35 234.47 134.197 235.096C133.629 237.421 132.619 239.506 131.029 241.307C128.051 244.682 124.38 246.931 120.232 248.436C104.346 254.199 87.4454 256.507 71.5641 250.512C64.9892 248.03 55.0875 243.594 56.2731 234.868Z" fill="#89C5CC"/>
<path opacity="0.6" fill-rule="evenodd" clip-rule="evenodd" d="M783.655 506.397C794.463 579.558 532.363 627.278 306.768 593.975C81.1734 560.672 -22.3189 430.621 85.3313 361.325C192.981 292.028 772.848 433.236 783.655 506.397Z" fill="#DDE3E9"/>
<path d="M322.551 26.8793H162.396C157.447 26.8793 153.436 30.8907 153.436 35.839V356.15C153.436 361.099 157.447 365.11 162.396 365.11H322.551C327.5 365.11 331.511 361.099 331.511 356.15V35.839C331.511 30.8907 327.5 26.8793 322.551 26.8793Z" fill="#F2F2F2"/>
<path d="M241.913 343.831C251.192 343.831 258.713 336.309 258.713 327.031C258.713 317.753 251.192 310.232 241.913 310.232C232.635 310.232 225.114 317.753 225.114 327.031C225.114 336.309 232.635 343.831 241.913 343.831Z" fill="white"/>
<path d="M227.354 49.2786C228.591 49.2786 229.594 48.2758 229.594 47.0387C229.594 45.8016 228.591 44.7988 227.354 44.7988C226.117 44.7988 225.114 45.8016 225.114 47.0387C225.114 48.2758 226.117 49.2786 227.354 49.2786Z" fill="white"/>
<path d="M256.473 44.7988H237.434C236.196 44.7988 235.194 45.8016 235.194 47.0387C235.194 48.2758 236.196 49.2786 237.434 49.2786H256.473C257.71 49.2786 258.713 48.2758 258.713 47.0387C258.713 45.8016 257.71 44.7988 256.473 44.7988Z" fill="white"/>
<path d="M311.352 58.2384H173.595C171.121 58.2384 169.115 60.2441 169.115 62.7183V114.237C169.115 116.711 171.121 118.717 173.595 118.717H311.352C313.826 118.717 315.831 116.711 315.831 114.237V62.7183C315.831 60.2441 313.826 58.2384 311.352 58.2384Z" fill="white"/>
<path d="M291.192 76.3819H216.154C214.298 76.3819 212.794 77.8862 212.794 79.7418V82.0938C212.794 83.9494 214.298 85.4537 216.154 85.4537H291.192C293.048 85.4537 294.552 83.9494 294.552 82.0938V79.7418C294.552 77.8862 293.048 76.3819 291.192 76.3819Z" fill="#DDE3E9"/>
<path d="M264.313 91.5015H216.154C214.298 91.5015 212.794 93.0058 212.794 94.8614V97.2133C212.794 99.069 214.298 100.573 216.154 100.573H264.313C266.168 100.573 267.673 99.069 267.673 97.2133V94.8614C267.673 93.0058 266.168 91.5015 264.313 91.5015Z" fill="#DDE3E9"/>
<path d="M192.635 101.917C200.057 101.917 206.074 95.9001 206.074 88.4776C206.074 81.0551 200.057 75.038 192.635 75.038C185.212 75.038 179.195 81.0551 179.195 88.4776C179.195 95.9001 185.212 101.917 192.635 101.917Z" fill="#C5CFD6"/>
<path d="M311.352 127.677H173.595C171.121 127.677 169.115 129.682 169.115 132.156V170.235C169.115 172.71 171.121 174.715 173.595 174.715H311.352C313.826 174.715 315.831 172.71 315.831 170.235V132.156C315.831 129.682 313.826 127.677 311.352 127.677Z" fill="white"/>
<path d="M291.192 141.788H216.154C214.298 141.788 212.794 143.292 212.794 145.148V145.484C212.794 147.34 214.298 148.844 216.154 148.844H291.192C293.048 148.844 294.552 147.34 294.552 145.484V145.148C294.552 143.292 293.048 141.788 291.192 141.788Z" fill="#DDE3E9"/>
<path d="M264.313 153.548H216.154C214.298 153.548 212.794 155.052 212.794 156.908V157.244C212.794 159.099 214.298 160.604 216.154 160.604H264.313C266.168 160.604 267.673 159.099 267.673 157.244V156.908C267.673 155.052 266.168 153.548 264.313 153.548Z" fill="#DDE3E9"/>
<path d="M192.635 164.636C200.057 164.636 206.074 158.618 206.074 151.196C206.074 143.773 200.057 137.756 192.635 137.756C185.212 137.756 179.195 143.773 179.195 151.196C179.195 158.618 185.212 164.636 192.635 164.636Z" fill="#C5CFD6"/>
<path d="M311.352 183.675H173.595C171.121 183.675 169.115 185.681 169.115 188.155V226.234C169.115 228.708 171.121 230.714 173.595 230.714H311.352C313.826 230.714 315.831 228.708 315.831 226.234V188.155C315.831 185.681 313.826 183.675 311.352 183.675Z" fill="white"/>
<path d="M291.192 197.787H216.154C214.298 197.787 212.794 199.291 212.794 201.147V201.483C212.794 203.338 214.298 204.842 216.154 204.842H291.192C293.048 204.842 294.552 203.338 294.552 201.483V201.147C294.552 199.291 293.048 197.787 291.192 197.787Z" fill="#DDE3E9"/>
<path d="M264.313 209.546H216.154C214.298 209.546 212.794 211.051 212.794 212.906V213.242C212.794 215.098 214.298 216.602 216.154 216.602H264.313C266.168 216.602 267.673 215.098 267.673 213.242V212.906C267.673 211.051 266.168 209.546 264.313 209.546Z" fill="#DDE3E9"/>
<path d="M192.635 220.634C200.057 220.634 206.074 214.617 206.074 207.194C206.074 199.772 200.057 193.755 192.635 193.755C185.212 193.755 179.195 199.772 179.195 207.194C179.195 214.617 185.212 220.634 192.635 220.634Z" fill="#AFB9C5"/>
<path d="M311.352 239.673H173.595C171.121 239.673 169.115 241.679 169.115 244.153V282.232C169.115 284.706 171.121 286.712 173.595 286.712H311.352C313.826 286.712 315.831 284.706 315.831 282.232V244.153C315.831 241.679 313.826 239.673 311.352 239.673Z" fill="white"/>
<path d="M291.192 253.785H216.154C214.298 253.785 212.794 255.289 212.794 257.145V257.481C212.794 259.337 214.298 260.841 216.154 260.841H291.192C293.048 260.841 294.552 259.337 294.552 257.481V257.145C294.552 255.289 293.048 253.785 291.192 253.785Z" fill="#DDE3E9"/>
<path d="M264.313 265.545H216.154C214.298 265.545 212.794 267.049 212.794 268.905V269.241C212.794 271.096 214.298 272.601 216.154 272.601H264.313C266.168 272.601 267.673 271.096 267.673 269.241V268.905C267.673 267.049 266.168 265.545 264.313 265.545Z" fill="#DDE3E9"/>
<path d="M192.635 276.632C200.057 276.632 206.074 270.615 206.074 263.193C206.074 255.77 200.057 249.753 192.635 249.753C185.212 249.753 179.195 255.77 179.195 263.193C179.195 270.615 185.212 276.632 192.635 276.632Z" fill="#C5CFD6"/>
<path fill-rule="evenodd" clip-rule="evenodd" d="M187.192 300.152C185.708 300.152 184.229 300.182 182.747 300.259C181.617 300.318 179.891 300.084 178.935 300.788C177.942 301.519 178.01 303.016 178.165 304.073C178.986 309.664 180.987 314.621 185.175 318.582C191.622 324.68 199.013 327.779 207.759 329.159C213.903 330.129 219.574 328.783 224.097 324.414C227.401 330.547 229.908 337.334 231.166 344.184C231.787 347.564 231.976 350.903 231.867 354.345C231.797 356.549 231.675 358.748 231.439 360.942C231.336 361.896 230.85 363.339 231.224 364.24C231.662 365.298 233.139 365.4 233.802 364.498C234.354 363.747 234.252 362.273 234.366 361.384C234.554 359.908 234.728 358.431 234.852 356.948C235.054 354.548 235.204 352.141 235.193 349.731C235.168 344.318 233.964 338.883 232.318 333.745C229.16 323.886 224.035 315.125 216.065 308.251C211.165 304.024 205.556 302.312 199.193 301.393C195.231 300.821 191.205 300.152 187.192 300.152Z" fill="#89C5CC"/>
<path fill-rule="evenodd" clip-rule="evenodd" d="M210.074 339.351C194.06 339.351 183.274 352.257 178.174 365.672C176.252 370.728 175.802 376.281 175.061 381.59C174.823 383.294 174.911 385.89 174.219 387.408C173.968 387.958 173.393 388.156 173.668 388.906C173.835 389.36 174.161 389.638 174.652 389.728C175.659 389.914 177.084 388.817 177.947 388.384C185.111 384.791 189.817 379.236 193.657 372.44C196.037 368.228 198.452 363.855 199.865 359.23C200.729 356.405 201.232 353.43 201.527 350.499C201.643 349.345 201.756 348.163 201.749 347.002C201.742 345.85 201.206 345.241 200.821 344.238C206.164 342.215 212.196 341.664 217.609 343.76C222.615 345.699 226.773 349.445 229.102 354.152C229.707 355.375 230.174 356.666 230.514 357.982C230.736 358.844 230.747 359.963 231.159 360.743C232.159 362.632 234.262 361.369 234.06 359.61C233.497 354.703 230.69 349.776 227.102 346.365C222.577 342.062 216.443 339.351 210.074 339.351Z" fill="#89C5CC"/>
<path d="M396.469 55.9985H236.314C231.365 55.9985 227.354 60.0099 227.354 64.9582V385.27C227.354 390.218 231.365 394.229 236.314 394.229H396.469C401.417 394.229 405.429 390.218 405.429 385.27V64.9582C405.429 60.0099 401.417 55.9985 396.469 55.9985Z" fill="#DDE3E9"/>
<path d="M315.831 372.95C325.11 372.95 332.631 365.428 332.631 356.15C332.631 346.872 325.11 339.351 315.831 339.351C306.553 339.351 299.032 346.872 299.032 356.15C299.032 365.428 306.553 372.95 315.831 372.95Z" fill="white"/>
<path d="M301.272 78.3979C302.509 78.3979 303.512 77.395 303.512 76.1579C303.512 74.9209 302.509 73.918 301.272 73.918C300.035 73.918 299.032 74.9209 299.032 76.1579C299.032 77.395 300.035 78.3979 301.272 78.3979Z" fill="white"/>
<path d="M330.391 73.918H311.352C310.114 73.918 309.112 74.9209 309.112 76.1579C309.112 77.395 310.114 78.3979 311.352 78.3979H330.391C331.628 78.3979 332.631 77.395 332.631 76.1579C332.631 74.9209 331.628 73.918 330.391 73.918Z" fill="white"/>
<path d="M385.27 87.3576H247.513C245.039 87.3576 243.033 89.3633 243.033 91.8375V143.356C243.033 145.83 245.039 147.836 247.513 147.836H385.27C387.744 147.836 389.749 145.83 389.749 143.356V91.8375C389.749 89.3633 387.744 87.3576 385.27 87.3576Z" fill="white"/>
<path d="M331.511 105.501H256.473C254.617 105.501 253.113 107.005 253.113 108.861V111.213C253.113 113.069 254.617 114.573 256.473 114.573H331.511C333.367 114.573 334.871 113.069 334.871 111.213V108.861C334.871 107.005 333.367 105.501 331.511 105.501Z" fill="#DDE3E9"/>
<path d="M304.632 120.621H256.473C254.617 120.621 253.113 122.125 253.113 123.981V126.333C253.113 128.188 254.617 129.692 256.473 129.692H304.632C306.487 129.692 307.992 128.188 307.992 126.333V123.981C307.992 122.125 306.487 120.621 304.632 120.621Z" fill="#DDE3E9"/>
<path d="M374.07 125.437C378.4 125.437 381.91 121.927 381.91 117.597C381.91 113.267 378.4 109.757 374.07 109.757C369.74 109.757 366.23 113.267 366.23 117.597C366.23 121.927 369.74 125.437 374.07 125.437Z" fill="#DDE3E9"/>
<path d="M374.07 120.957C375.925 120.957 377.43 119.452 377.43 117.597C377.43 115.741 375.925 114.237 374.07 114.237C372.214 114.237 370.71 115.741 370.71 117.597C370.71 119.452 372.214 120.957 374.07 120.957Z" fill="#F2F2F2"/>
<path d="M385.27 156.796H247.513C245.039 156.796 243.033 158.801 243.033 161.276V199.355C243.033 201.829 245.039 203.834 247.513 203.834H385.27C387.744 203.834 389.749 201.829 389.749 199.355V161.276C389.749 158.801 387.744 156.796 385.27 156.796Z" fill="white"/>
<path d="M365.11 170.907H290.072C288.217 170.907 286.712 172.412 286.712 174.267V174.603C286.712 176.459 288.217 177.963 290.072 177.963H365.11C366.966 177.963 368.47 176.459 368.47 174.603V174.267C368.47 172.412 366.966 170.907 365.11 170.907Z" fill="#DDE3E9"/>
<path d="M338.231 182.667H290.072C288.217 182.667 286.712 184.171 286.712 186.027V186.363C286.712 188.219 288.217 189.723 290.072 189.723H338.231C340.086 189.723 341.591 188.219 341.591 186.363V186.027C341.591 184.171 340.086 182.667 338.231 182.667Z" fill="#DDE3E9"/>
<path d="M266.553 193.755C273.975 193.755 279.992 187.738 279.992 180.315C279.992 172.893 273.975 166.875 266.553 166.875C259.13 166.875 253.113 172.893 253.113 180.315C253.113 187.738 259.13 193.755 266.553 193.755Z" fill="#C5CFD6"/>
<path d="M385.27 212.794H247.513C245.039 212.794 243.033 214.8 243.033 217.274V255.353C243.033 257.827 245.039 259.833 247.513 259.833H385.27C387.744 259.833 389.749 257.827 389.749 255.353V217.274C389.749 214.8 387.744 212.794 385.27 212.794Z" fill="white"/>
<path d="M331.511 226.906H256.473C254.617 226.906 253.113 228.41 253.113 230.266V230.602C253.113 232.457 254.617 233.962 256.473 233.962H331.511C333.367 233.962 334.871 232.457 334.871 230.602V230.266C334.871 228.41 333.367 226.906 331.511 226.906Z" fill="#DDE3E9"/>
<path d="M304.632 238.666H256.473C254.617 238.666 253.113 240.17 253.113 242.025V242.361C253.113 244.217 254.617 245.721 256.473 245.721H304.632C306.487 245.721 307.992 244.217 307.992 242.361V242.025C307.992 240.17 306.487 238.666 304.632 238.666Z" fill="#AFB9C5"/>
<path d="M374.07 244.153C378.4 244.153 381.91 240.643 381.91 236.314C381.91 231.984 378.4 228.474 374.07 228.474C369.74 228.474 366.23 231.984 366.23 236.314C366.23 240.643 369.74 244.153 374.07 244.153Z" fill="#DDE3E9"/>
<path d="M374.07 239.673C375.925 239.673 377.43 238.169 377.43 236.314C377.43 234.458 375.925 232.954 374.07 232.954C372.214 232.954 370.71 234.458 370.71 236.314C370.71 238.169 372.214 239.673 374.07 239.673Z" fill="#F2F2F2"/>
<path d="M385.27 268.793H247.513C245.039 268.793 243.033 270.798 243.033 273.273V311.352C243.033 313.826 245.039 315.831 247.513 315.831H385.27C387.744 315.831 389.749 313.826 389.749 311.352V273.273C389.749 270.798 387.744 268.793 385.27 268.793Z" fill="white"/>
<path d="M365.11 282.904H290.072C288.217 282.904 286.712 284.409 286.712 286.264V286.6C286.712 288.456 288.217 289.96 290.072 289.96H365.11C366.966 289.96 368.47 288.456 368.47 286.6V286.264C368.47 284.409 366.966 282.904 365.11 282.904Z" fill="#DDE3E9"/>
<path d="M338.231 294.664H290.072C288.217 294.664 286.712 296.168 286.712 298.024V298.36C286.712 300.215 288.217 301.72 290.072 301.72H338.231C340.086 301.72 341.591 300.215 341.591 298.36V298.024C341.591 296.168 340.086 294.664 338.231 294.664Z" fill="#DDE3E9"/>
<path d="M266.553 305.752C273.975 305.752 279.992 299.735 279.992 292.312C279.992 284.89 273.975 278.872 266.553 278.872C259.13 278.872 253.113 284.89 253.113 292.312C253.113 299.735 259.13 305.752 266.553 305.752Z" fill="#C5CFD6"/>
<path d="M667.502 83.9977H310.232C305.283 83.9977 301.272 88.0091 301.272 92.9575V462.547C301.272 467.496 305.283 471.507 310.232 471.507H667.502C672.45 471.507 676.462 467.496 676.462 462.547V92.9575C676.462 88.0091 672.45 83.9977 667.502 83.9977Z" fill="#F2F2F2"/>
<path d="M649.582 132.156H589.104C584.156 132.156 580.144 136.168 580.144 141.116V213.914C580.144 218.863 584.156 222.874 589.104 222.874H649.582C654.531 222.874 658.542 218.863 658.542 213.914V141.116C658.542 136.168 654.531 132.156 649.582 132.156Z" fill="white"/>
<path d="M619.343 184.795C629.24 184.795 637.263 176.772 637.263 166.875C637.263 156.979 629.24 148.956 619.343 148.956C609.446 148.956 601.424 156.979 601.424 166.875C601.424 176.772 609.446 184.795 619.343 184.795Z" fill="#DDE3E9"/>
<path d="M643.982 189.275H594.704C592.848 189.275 591.344 190.779 591.344 192.635C591.344 194.49 592.848 195.995 594.704 195.995H643.982C645.838 195.995 647.342 194.49 647.342 192.635C647.342 190.779 645.838 189.275 643.982 189.275Z" fill="#DDE3E9"/>
<path d="M635.023 200.475H603.664C601.808 200.475 600.304 201.979 600.304 203.834C600.304 205.69 601.808 207.194 603.664 207.194H635.023C636.878 207.194 638.383 205.69 638.383 203.834C638.383 201.979 636.878 200.475 635.023 200.475Z" fill="#DDE3E9"/>
<path fill-rule="evenodd" clip-rule="evenodd" d="M310.232 83.9977H667.502C672.45 83.9977 676.462 88.0091 676.462 92.9575V114.237H301.272V92.9575C301.272 88.0091 305.283 83.9977 310.232 83.9977Z" fill="#C5CFD6"/>
<path d="M315.831 104.157C318.306 104.157 320.311 102.151 320.311 99.6773C320.311 97.2031 318.306 95.1974 315.831 95.1974C313.357 95.1974 311.352 97.2031 311.352 99.6773C311.352 102.151 313.357 104.157 315.831 104.157Z" fill="#F2F2F2"/>
<path d="M329.271 104.157C331.745 104.157 333.751 102.151 333.751 99.6773C333.751 97.2031 331.745 95.1974 329.271 95.1974C326.797 95.1974 324.791 97.2031 324.791 99.6773C324.791 102.151 326.797 104.157 329.271 104.157Z" fill="#F2F2F2"/>
<path d="M342.711 104.157C345.185 104.157 347.191 102.151 347.191 99.6773C347.191 97.2031 345.185 95.1974 342.711 95.1974C340.236 95.1974 338.231 97.2031 338.231 99.6773C338.231 102.151 340.236 104.157 342.711 104.157Z" fill="#F2F2F2"/>
<path d="M649.582 231.834H589.104C584.156 231.834 580.144 235.845 580.144 240.793V440.148C580.144 445.096 584.156 449.108 589.104 449.108H649.582C654.531 449.108 658.542 445.096 658.542 440.148V240.793C658.542 235.845 654.531 231.834 649.582 231.834Z" fill="white"/>
<path d="M633.903 251.993H604.784C602.309 251.993 600.304 253.999 600.304 256.473V276.632C600.304 279.107 602.309 281.112 604.784 281.112H633.903C636.377 281.112 638.383 279.107 638.383 276.632V256.473C638.383 253.999 636.377 251.993 633.903 251.993Z" fill="#DDE3E9"/>
<path d="M633.903 290.072H604.784C602.309 290.072 600.304 292.078 600.304 294.552V313.591C600.304 316.066 602.309 318.071 604.784 318.071H633.903C636.377 318.071 638.383 316.066 638.383 313.591V294.552C638.383 292.078 636.377 290.072 633.903 290.072Z" fill="#AFB9C5"/>
<path d="M633.903 327.031H604.784C602.309 327.031 600.304 329.037 600.304 331.511V350.55C600.304 353.025 602.309 355.03 604.784 355.03H633.903C636.377 355.03 638.383 353.025 638.383 350.55V331.511C638.383 329.037 636.377 327.031 633.903 327.031Z" fill="#DDE3E9"/>
<path d="M633.903 400.949H604.784C602.309 400.949 600.304 402.955 600.304 405.429V424.468C600.304 426.943 602.309 428.948 604.784 428.948H633.903C636.377 428.948 638.383 426.943 638.383 424.468V405.429C638.383 402.955 636.377 400.949 633.903 400.949Z" fill="#DDE3E9"/>
<path d="M633.903 363.99H604.784C602.309 363.99 600.304 365.996 600.304 368.47V387.509C600.304 389.984 602.309 391.989 604.784 391.989H633.903C636.377 391.989 638.383 389.984 638.383 387.509V368.47C638.383 365.996 636.377 363.99 633.903 363.99Z" fill="#C5CFD6"/>
<path d="M566.705 133.276H323.671C321.197 133.276 319.191 135.282 319.191 137.756V181.435C319.191 183.909 321.197 185.915 323.671 185.915H566.705C569.179 185.915 571.184 183.909 571.184 181.435V137.756C571.184 135.282 569.179 133.276 566.705 133.276Z" fill="white"/>
<path d="M512.946 149.068H332.631C330.775 149.068 329.271 150.572 329.271 152.428V153.604C329.271 155.459 330.775 156.964 332.631 156.964H512.946C514.802 156.964 516.306 155.459 516.306 153.604V152.428C516.306 150.572 514.802 149.068 512.946 149.068Z" fill="#DDE3E9"/>
<path d="M451.455 162.228H332.631C330.775 162.228 329.271 163.732 329.271 165.587V166.763C329.271 168.619 330.775 170.123 332.631 170.123H451.455C453.311 170.123 454.815 168.619 454.815 166.763V165.587C454.815 163.732 453.311 162.228 451.455 162.228Z" fill="#DDE3E9"/>
<path d="M544.254 167.435C548.584 167.435 552.094 163.925 552.094 159.596C552.094 155.266 548.584 151.756 544.254 151.756C539.924 151.756 536.414 155.266 536.414 159.596C536.414 163.925 539.924 167.435 544.254 167.435Z" fill="#DDE3E9"/>
<path d="M544.254 162.956C546.11 162.956 547.614 161.451 547.614 159.596C547.614 157.74 546.11 156.236 544.254 156.236C542.398 156.236 540.894 157.74 540.894 159.596C540.894 161.451 542.398 162.956 544.254 162.956Z" fill="#F2F2F2"/>
<path d="M566.705 194.875H323.671C321.197 194.875 319.191 196.88 319.191 199.355V234.074C319.191 236.548 321.197 238.554 323.671 238.554H566.705C569.179 238.554 571.184 236.548 571.184 234.074V199.355C571.184 196.88 569.179 194.875 566.705 194.875Z" fill="white"/>
<path d="M513.03 207.978H332.547C330.738 207.978 329.271 209.445 329.271 211.254C329.271 213.063 330.738 214.53 332.547 214.53H513.03C514.839 214.53 516.306 213.063 516.306 211.254C516.306 209.445 514.839 207.978 513.03 207.978Z" fill="#DDE3E9"/>
<path d="M451.539 218.898H332.547C330.738 218.898 329.271 220.365 329.271 222.174C329.271 223.983 330.738 225.45 332.547 225.45H451.539C453.348 225.45 454.815 223.983 454.815 222.174C454.815 220.365 453.348 218.898 451.539 218.898Z" fill="#DDE3E9"/>
<path d="M544.254 224.554C548.584 224.554 552.094 221.044 552.094 216.714C552.094 212.384 548.584 208.874 544.254 208.874C539.924 208.874 536.414 212.384 536.414 216.714C536.414 221.044 539.924 224.554 544.254 224.554Z" fill="#DDE3E9"/>
<path d="M544.254 220.074C546.11 220.074 547.614 218.57 547.614 216.714C547.614 214.858 546.11 213.354 544.254 213.354C542.398 213.354 540.894 214.858 540.894 216.714C540.894 218.57 542.398 220.074 544.254 220.074Z" fill="#F2F2F2"/>
<path d="M566.705 247.513H323.671C321.197 247.513 319.191 249.519 319.191 251.993V286.712C319.191 289.186 321.197 291.192 323.671 291.192H566.705C569.179 291.192 571.184 289.186 571.184 286.712V251.993C571.184 249.519 569.179 247.513 566.705 247.513Z" fill="white"/>
<path d="M513.03 260.617H332.547C330.738 260.617 329.271 262.084 329.271 263.893C329.271 265.702 330.738 267.169 332.547 267.169H513.03C514.839 267.169 516.306 265.702 516.306 263.893C516.306 262.084 514.839 260.617 513.03 260.617Z" fill="#DDE3E9"/>
<path d="M451.539 271.537H332.547C330.738 271.537 329.271 273.003 329.271 274.813C329.271 276.622 330.738 278.088 332.547 278.088H451.539C453.348 278.088 454.815 276.622 454.815 274.813C454.815 273.003 453.348 271.537 451.539 271.537Z" fill="#DDE3E9"/>
<path d="M544.254 277.192C548.584 277.192 552.094 273.682 552.094 269.353C552.094 265.023 548.584 261.513 544.254 261.513C539.924 261.513 536.414 265.023 536.414 269.353C536.414 273.682 539.924 277.192 544.254 277.192Z" fill="#DDE3E9"/>
<path d="M544.254 272.713C546.11 272.713 547.614 271.208 547.614 269.353C547.614 267.497 546.11 265.993 544.254 265.993C542.398 265.993 540.894 267.497 540.894 269.353C540.894 271.208 542.398 272.713 544.254 272.713Z" fill="#AFB9C5"/>
<path d="M566.705 405.429H323.671C321.197 405.429 319.191 407.435 319.191 409.909V444.628C319.191 447.102 321.197 449.108 323.671 449.108H566.705C569.179 449.108 571.184 447.102 571.184 444.628V409.909C571.184 407.435 569.179 405.429 566.705 405.429Z" fill="white"/>
<path d="M513.03 418.533H332.547C330.738 418.533 329.271 419.999 329.271 421.809C329.271 423.618 330.738 425.084 332.547 425.084H513.03C514.839 425.084 516.306 423.618 516.306 421.809C516.306 419.999 514.839 418.533 513.03 418.533Z" fill="#DDE3E9"/>
<path d="M451.539 429.452H332.547C330.738 429.452 329.271 430.919 329.271 432.728C329.271 434.537 330.738 436.004 332.547 436.004H451.539C453.348 436.004 454.815 434.537 454.815 432.728C454.815 430.919 453.348 429.452 451.539 429.452Z" fill="#DDE3E9"/>
<path d="M544.254 435.108C548.584 435.108 552.094 431.598 552.094 427.268C552.094 422.939 548.584 419.429 544.254 419.429C539.924 419.429 536.414 422.939 536.414 427.268C536.414 431.598 539.924 435.108 544.254 435.108Z" fill="#DDE3E9"/>
<path d="M544.254 430.628C546.11 430.628 547.614 429.124 547.614 427.268C547.614 425.413 546.11 423.908 544.254 423.908C542.398 423.908 540.894 425.413 540.894 427.268C540.894 429.124 542.398 430.628 544.254 430.628Z" fill="#F2F2F2"/>
<path d="M566.705 352.79H323.671C321.197 352.79 319.191 354.796 319.191 357.27V391.989C319.191 394.464 321.197 396.469 323.671 396.469H566.705C569.179 396.469 571.184 394.464 571.184 391.989V357.27C571.184 354.796 569.179 352.79 566.705 352.79Z" fill="white"/>
<path d="M513.03 365.894H332.547C330.738 365.894 329.271 367.361 329.271 369.17C329.271 370.979 330.738 372.446 332.547 372.446H513.03C514.839 372.446 516.306 370.979 516.306 369.17C516.306 367.361 514.839 365.894 513.03 365.894Z" fill="#DDE3E9"/>
<path d="M451.539 376.814H332.547C330.738 376.814 329.271 378.28 329.271 380.09C329.271 381.899 330.738 383.366 332.547 383.366H451.539C453.348 383.366 454.815 381.899 454.815 380.09C454.815 378.28 453.348 376.814 451.539 376.814Z" fill="#DDE3E9"/>
<path d="M544.254 382.47C548.584 382.47 552.094 378.96 552.094 374.63C552.094 370.3 548.584 366.79 544.254 366.79C539.924 366.79 536.414 370.3 536.414 374.63C536.414 378.96 539.924 382.47 544.254 382.47Z" fill="#DDE3E9"/>
<path d="M544.254 377.99C546.11 377.99 547.614 376.485 547.614 374.63C547.614 372.774 546.11 371.27 544.254 371.27C542.398 371.27 540.894 372.774 540.894 374.63C540.894 376.485 542.398 377.99 544.254 377.99Z" fill="#F2F2F2"/>
<path d="M566.705 300.152H323.671C321.197 300.152 319.191 302.158 319.191 304.632V339.351C319.191 341.825 321.197 343.831 323.671 343.831H566.705C569.179 343.831 571.184 341.825 571.184 339.351V304.632C571.184 302.158 569.179 300.152 566.705 300.152Z" fill="white"/>
<path d="M513.03 313.255H332.547C330.738 313.255 329.271 314.722 329.271 316.531C329.271 318.341 330.738 319.807 332.547 319.807H513.03C514.839 319.807 516.306 318.341 516.306 316.531C516.306 314.722 514.839 313.255 513.03 313.255Z" fill="#DDE3E9"/>
<path d="M451.539 324.175H332.547C330.738 324.175 329.271 325.642 329.271 327.451C329.271 329.26 330.738 330.727 332.547 330.727H451.539C453.348 330.727 454.815 329.26 454.815 327.451C454.815 325.642 453.348 324.175 451.539 324.175Z" fill="#DDE3E9"/>
<path d="M544.254 329.831C548.584 329.831 552.094 326.321 552.094 321.991C552.094 317.661 548.584 314.151 544.254 314.151C539.924 314.151 536.414 317.661 536.414 321.991C536.414 326.321 539.924 329.831 544.254 329.831Z" fill="#DDE3E9"/>
<path d="M544.254 325.351C546.11 325.351 547.614 323.847 547.614 321.991C547.614 320.136 546.11 318.631 544.254 318.631C542.398 318.631 540.894 320.136 540.894 321.991C540.894 323.847 542.398 325.351 544.254 325.351Z" fill="#F2F2F2"/>
<path fill-rule="evenodd" clip-rule="evenodd" d="M769.403 274.813C764.985 271.818 759.111 271.033 753.825 271.033C733.177 271.033 713.769 278.693 697.003 290.108C687.816 296.362 679.598 304.327 672.342 312.62C668.154 317.407 664.42 322.585 661.776 328.345C659.992 332.232 658.767 336.283 657.937 340.46C656.926 345.552 656.122 350.747 655.759 355.923C655.616 357.961 654.431 368.777 657.82 368.96C657.801 369.227 657.796 369.481 657.817 369.709C650.458 381.215 645.912 394.7 641.696 407.485C638.027 418.61 634.759 429.829 632.637 441.339C629.843 456.491 628.008 471.872 627.136 487.242C626.949 490.546 626.82 493.851 626.709 497.158C626.615 499.98 626.52 502.801 626.428 505.622C626.324 508.784 625.767 512.424 626.27 515.567C626.708 518.304 629.077 517.89 629.182 515.166C629.308 511.876 629.288 508.58 629.431 505.288C629.623 500.919 629.82 496.55 630.034 492.182C631.522 461.84 637.106 431.945 647.411 403.283C651.581 391.685 656.36 380.705 662.501 369.976C667.901 360.543 674.396 351.41 681.035 342.904C687.488 334.638 694.197 326.564 702.104 319.561C708.52 313.878 715.578 308.927 722.832 304.321C732.047 298.47 741.244 292.761 751.225 288.27C756.414 285.936 761.7 283.846 766.929 281.606C767.87 281.203 768.879 280.812 769.783 280.345C772.802 278.788 771.808 276.444 769.403 274.813Z" fill="#C1DEE2"/>
<path fill-rule="evenodd" clip-rule="evenodd" d="M686.337 380.79C694.711 380.79 702.163 381.878 709.879 385.206C716.54 388.078 722.61 391.881 728.503 396.02C736.792 401.843 743.322 408.619 747.892 417.597C750.623 422.961 752.626 430.551 750.792 436.402C748.632 443.292 742.701 449.039 734.89 447.825C730.059 447.075 725.631 443.877 721.96 440.868C717.568 437.268 714.053 432.939 711.15 428.131C706.414 420.288 703.632 411.422 699.609 403.227C697.7 399.337 695.856 395.419 693.57 391.723C692.438 389.892 691.233 388.079 689.516 386.719C688.597 385.991 684.724 384.732 686.205 383.098C664.489 383.383 645.25 400.061 641.081 420.706C640.693 422.63 640.389 424.57 640.069 426.506C639.866 427.729 639.948 432.237 638.855 433.018C636.445 434.741 637.458 429.507 637.561 428.754C637.829 426.806 638.114 424.86 638.413 422.918C640.041 412.352 644.745 402.53 652.589 394.995C661.56 386.378 673.663 380.79 686.337 380.79Z" fill="#89C5CC"/>
<path fill-rule="evenodd" clip-rule="evenodd" d="M82.8082 354.735C103.714 389.807 128.063 423.767 142.685 462.114C142.096 457.594 141.471 453.079 140.772 448.57C137.062 424.669 132.45 400.942 127.605 377.245C125.137 365.179 122.527 353.157 119.851 341.136C118.411 334.68 116.989 328.22 115.52 321.769C115.164 320.206 114.858 317.477 114.412 314.711C128.623 361.343 142.327 408.01 152.35 455.763C153.665 462.03 154.785 468.286 155.702 474.531C156.016 473.106 156.325 471.682 156.663 470.261C160.719 453.229 166.802 436.333 174.046 420.408C177.509 412.792 181.487 405.343 186.17 398.402C189.091 394.076 195.978 388.933 198.643 384.502C184.072 411.226 178.811 444.663 170.398 473.717C168.344 480.807 166.278 487.886 164.254 494.977C176.941 469.533 196.625 448.628 223.994 439.569C190.865 461.458 170.995 499.791 157.605 538.996C157.56 539.461 157.508 539.926 157.463 540.392C161.403 532.914 166.366 526.15 173.093 521.413C187.49 511.271 203.462 514.225 217.428 522.925C206.467 515.957 186.657 522.302 177.435 529.384C170.832 534.453 165.19 541.254 160.29 547.889C159.116 549.479 157.514 551.335 155.822 553.315C153.449 568.715 149.583 584.01 144.109 599.184C145.013 594.828 144.359 587.863 144.61 584.617C144.637 584.265 144.659 583.913 144.686 583.563C143.854 586.885 143.05 590.17 142.276 593.401C143.815 587.235 144.651 580.797 145.304 574.294C145.472 571.499 145.636 568.704 145.809 565.909C145.754 560.605 145.536 555.279 145.166 549.946C143.856 544.762 142.389 539.872 141.179 535.806C136.814 521.134 130.414 507.077 122.537 493.964C115.35 481.997 106.747 471.157 96.8155 461.354C91.4616 456.071 85.8584 451.039 80.3342 445.938C78.3366 444.093 74.7661 439.559 71.6781 437.195C94.1676 449.594 117.316 463.007 133.722 482.984C131.798 475.598 129.709 468.316 127.499 461.181C116.288 424.977 102.132 387.456 82.8082 354.735Z" fill="#DDE3E9"/>
<path fill-rule="evenodd" clip-rule="evenodd" d="M105.277 553.265C105.277 593.47 108.461 626.063 151.196 626.063C193.931 626.063 197.115 593.47 197.115 553.265" fill="#C5CFD6"/>
<path d="M587.984 39.1989C587.984 37.3433 586.48 35.839 584.624 35.839C582.768 35.839 581.264 37.3433 581.264 39.1989V60.4783C581.264 62.334 582.768 63.8383 584.624 63.8383C586.48 63.8383 587.984 62.334 587.984 60.4783V39.1989Z" fill="#DDE3E9"/>
<path d="M603.663 21.2794C603.663 19.4238 602.159 17.9195 600.304 17.9195C598.448 17.9195 596.944 19.4238 596.944 21.2794V60.4783C596.944 62.334 598.448 63.8382 600.304 63.8382C602.159 63.8382 603.663 62.334 603.663 60.4783V21.2794Z" fill="#DDE3E9"/>
<path d="M619.343 12.3197C619.343 10.464 617.839 8.95975 615.983 8.95975C614.128 8.95975 612.623 10.464 612.623 12.3197V60.4783C612.623 62.334 614.128 63.8383 615.983 63.8383C617.839 63.8383 619.343 62.334 619.343 60.4783V12.3197Z" fill="#DDE3E9"/>
<path d="M635.023 21.2794C635.023 19.4238 633.518 17.9195 631.663 17.9195C629.807 17.9195 628.303 19.4238 628.303 21.2794V60.4783C628.303 62.334 629.807 63.8382 631.663 63.8382C633.518 63.8382 635.023 62.334 635.023 60.4783V21.2794Z" fill="#DDE3E9"/>
<path d="M650.702 3.35991C650.702 1.50428 649.198 0 647.342 0C645.487 0 643.983 1.50428 643.983 3.35991V60.4784C643.983 62.334 645.487 63.8383 647.342 63.8383C649.198 63.8383 650.702 62.334 650.702 60.4784V3.35991Z" fill="#C5CFD6"/>
<path fill-rule="evenodd" clip-rule="evenodd" d="M30.2392 342.998C30.2392 330.522 40.3212 320.311 52.6386 320.311V342.998L37.3309 359.51C32.9764 355.473 30.2392 349.551 30.2392 342.998Z" fill="#F2F2F2"/>
<path fill-rule="evenodd" clip-rule="evenodd" d="M52.0459 342.711H74.6661C74.6661 348.558 72.2808 354.037 68.51 358.018C64.3626 362.373 58.4565 365.11 52.0459 365.11C46.1408 365.11 40.7357 362.748 36.5872 359.014L52.0459 342.711Z" fill="#AFB9C5"/>
<path fill-rule="evenodd" clip-rule="evenodd" d="M75.038 342.711C75.038 330.393 64.956 320.311 52.6386 320.311V342.711H75.038ZM41.4389 320.311L50.3986 340.471L30.2392 331.511C32.2327 326.285 36.7092 322.305 41.4389 320.311Z" fill="#C5CFD6"/>
<path fill-rule="evenodd" clip-rule="evenodd" d="M759.078 352.991C756.926 355.276 753.877 356.71 750.486 356.71C743.971 356.71 738.689 351.445 738.689 344.951C738.689 338.456 743.971 333.191 750.486 333.191V311.352C731.952 311.352 716.781 326.474 716.781 344.951C716.781 363.427 731.952 378.55 750.486 378.55C760.222 378.55 769.021 374.444 775.019 367.912L759.078 352.991Z" fill="#F2F2F2"/>
<path fill-rule="evenodd" clip-rule="evenodd" d="M750.38 311.352V333.191C756.874 333.191 762.139 338.456 762.139 344.951H783.979C783.979 326.474 768.856 311.352 750.38 311.352Z" fill="#AFB9C5"/>
<path fill-rule="evenodd" clip-rule="evenodd" d="M761.688 344.951C761.688 348.766 759.891 352.158 757.099 354.348L770.832 371.83C778.826 365.571 783.979 355.87 783.979 344.951H761.688Z" fill="#C5CFD6"/>
<path fill-rule="evenodd" clip-rule="evenodd" d="M545.482 44.2432C543.827 45.9948 541.482 47.0947 538.874 47.0947C533.862 47.0947 529.799 43.0582 529.799 38.079C529.799 33.0997 533.862 29.0632 538.874 29.0632V12.3197C524.616 12.3197 512.946 23.9139 512.946 38.079C512.946 52.244 524.616 63.8383 538.874 63.8383C546.363 63.8383 553.131 60.6905 557.745 55.6829L545.482 44.2432Z" fill="#F2F2F2"/>
<path fill-rule="evenodd" clip-rule="evenodd" d="M538.705 12.3197V29.0632C543.685 29.0632 547.721 33.0997 547.721 38.079H564.465C564.465 23.9139 552.87 12.3197 538.705 12.3197Z" fill="#AFB9C5"/>
<path fill-rule="evenodd" clip-rule="evenodd" d="M547.747 38.079C547.747 40.9408 546.399 43.4846 544.305 45.127L554.605 58.2384C560.6 53.5444 564.465 46.2682 564.465 38.079H547.747Z" fill="#C5CFD6"/>
<path fill-rule="evenodd" clip-rule="evenodd" d="M137.764 63.8229C137.76 63.834 137.755 63.8452 137.748 63.8585C137.755 63.8474 137.764 63.8029 137.764 63.8229Z" fill="#C5CFD6"/>
<path fill-rule="evenodd" clip-rule="evenodd" d="M137.754 63.8398C137.754 63.8421 137.751 63.8465 137.751 63.851C137.751 63.8398 137.771 63.8065 137.754 63.8398Z" fill="#C5CFD6"/>
<path fill-rule="evenodd" clip-rule="evenodd" d="M137.831 63.6505C137.816 63.6953 137.796 63.7378 137.778 63.7826C137.787 63.7602 137.796 63.7423 137.805 63.7199C137.572 64.3023 137.719 63.9237 137.831 63.6505Z" fill="#C5CFD6"/>
<path fill-rule="evenodd" clip-rule="evenodd" d="M137.781 63.7853C137.772 63.8054 137.763 63.8276 137.754 63.8477C137.69 63.9723 137.781 63.7853 137.781 63.7853Z" fill="#C5CFD6"/>
<path fill-rule="evenodd" clip-rule="evenodd" d="M137.745 63.8563C137.807 63.7539 137.731 63.883 137.745 63.8563Z" fill="#C5CFD6"/>
<path fill-rule="evenodd" clip-rule="evenodd" d="M137.754 63.8405L137.758 63.836C137.756 63.8383 137.756 63.8405 137.754 63.8405Z" fill="#C5CFD6"/>
<path d="M185.915 5.59985H88.4776C86.0034 5.59985 83.9977 7.60556 83.9977 10.0797V71.6781C83.9977 74.1522 86.0034 76.1579 88.4776 76.1579H185.915C188.389 76.1579 190.395 74.1522 190.395 71.6781V10.0797C190.395 7.60556 188.389 5.59985 185.915 5.59985Z" fill="#DDE3E9"/>
<path fill-rule="evenodd" clip-rule="evenodd" d="M124.317 25.7593L92.9575 76.1579H155.676L124.317 25.7593Z" fill="#AFB9C5"/>
<path fill-rule="evenodd" clip-rule="evenodd" d="M155.116 39.1989L127.677 76.1579H182.555L155.116 39.1989Z" fill="#C5CFD6"/>
<path d="M166.875 39.1989C172.442 39.1989 176.955 34.6861 176.955 29.1192C176.955 23.5523 172.442 19.0395 166.875 19.0395C161.309 19.0395 156.796 23.5523 156.796 29.1192C156.796 34.6861 161.309 39.1989 166.875 39.1989Z" fill="white"/>
<path fill-rule="evenodd" clip-rule="evenodd" d="M671.974 542.05C671.978 542.061 671.983 542.072 671.99 542.086C671.983 542.074 671.974 542.03 671.974 542.05Z" fill="#C5CFD6"/>
<path fill-rule="evenodd" clip-rule="evenodd" d="M671.984 542.067C671.984 542.069 671.987 542.074 671.987 542.078C671.987 542.067 671.967 542.033 671.984 542.067Z" fill="#C5CFD6"/>
<path fill-rule="evenodd" clip-rule="evenodd" d="M671.906 541.877C671.922 541.922 671.942 541.965 671.96 542.01C671.951 541.987 671.942 541.969 671.933 541.947C672.166 542.529 672.018 542.151 671.906 541.877Z" fill="#C5CFD6"/>
<path fill-rule="evenodd" clip-rule="evenodd" d="M671.957 542.012C671.966 542.032 671.975 542.055 671.984 542.075C672.048 542.199 671.957 542.012 671.957 542.012Z" fill="#C5CFD6"/>
<path fill-rule="evenodd" clip-rule="evenodd" d="M671.994 542.083C671.931 541.981 672.007 542.11 671.994 542.083Z" fill="#C5CFD6"/>
<path fill-rule="evenodd" clip-rule="evenodd" d="M671.984 542.067L671.979 542.063C671.982 542.065 671.982 542.067 671.984 542.067Z" fill="#C5CFD6"/>
<path d="M596.944 455.828H747.02C749.494 455.828 751.499 457.833 751.499 460.307V556.625C751.499 559.099 749.494 561.105 747.02 561.105H596.944C594.469 561.105 592.464 559.099 592.464 556.625V460.307C592.464 457.833 594.469 455.828 596.944 455.828Z" fill="#DDE3E9"/>
<path fill-rule="evenodd" clip-rule="evenodd" d="M692.448 486.067L738.429 561.105H646.468L692.448 486.067Z" fill="#AFB9C5"/>
<path fill-rule="evenodd" clip-rule="evenodd" d="M645.04 506.166L685.689 561.105H604.391L645.04 506.166Z" fill="#C5CFD6"/>
<path d="M627.743 506.226C619.393 506.226 612.623 499.457 612.623 491.107C612.623 482.756 619.393 475.987 627.743 475.987C636.093 475.987 642.863 482.756 642.863 491.107C642.863 499.457 636.093 506.226 627.743 506.226Z" fill="white"/>
<path fill-rule="evenodd" clip-rule="evenodd" d="M670.027 436.777C674.778 431.201 677.993 424.367 677.456 416.709C675.908 394.644 645.193 399.498 639.219 410.634C633.244 421.771 633.954 450.018 641.676 452.009C644.755 452.803 651.315 450.858 657.992 446.834L653.801 476.482H678.545L670.027 436.777Z" fill="#915B3C"/>
<path fill-rule="evenodd" clip-rule="evenodd" d="M671.928 441.744C675.034 427.927 683.881 418.509 682.53 412.333C681.629 408.216 679.228 405.656 675.327 404.653C673.31 396.49 666.802 393.019 655.805 394.238C639.31 396.066 629.242 402.916 633.59 417.99C637.587 417.99 642.412 416.544 649.083 419.021C651.2 419.806 652.714 422.243 653.626 426.331H656.64C659.567 421.48 662.452 419.697 665.296 420.983C668.14 422.269 668.787 425.392 667.235 430.352L668.721 441.744H671.928Z" fill="#191847"/>
<path fill-rule="evenodd" clip-rule="evenodd" d="M747.624 605.359H629.056C619.946 605.359 612.56 612.745 612.56 621.856V716.709C612.56 725.82 619.946 733.206 629.056 733.206H747.624C756.734 733.206 764.12 725.82 764.12 716.709V621.856C764.12 612.745 756.734 605.359 747.624 605.359ZM731.127 634.228C733.405 634.228 735.251 636.074 735.251 638.352V700.213C735.251 702.491 733.405 704.337 731.127 704.337H645.553C643.275 704.337 641.429 702.491 641.429 700.213V638.352C641.429 636.074 643.275 634.228 645.553 634.228H731.127Z" fill="#C5CFD6"/>
<path fill-rule="evenodd" clip-rule="evenodd" d="M510.325 728.051C530.653 703.228 544.407 684.826 551.587 672.843C563.882 652.327 573.945 634.071 577.121 627.098C584.693 610.468 559.687 602.681 554.028 610.438C545.462 622.178 527.169 659.12 499.148 721.264L510.325 728.051Z" fill="#B28B67"/>
<path fill-rule="evenodd" clip-rule="evenodd" d="M551.98 720.833L589.81 625.605C597.902 608.246 558.828 596.835 552.881 604.914C539.381 623.255 507.294 695.609 503.272 701.073L551.98 720.833Z" fill="#2F3676"/>
<path fill-rule="evenodd" clip-rule="evenodd" d="M652.736 701.736C645.366 690.986 618.562 654.822 603.962 639.858C599.767 635.558 595.673 631.431 591.802 627.585C580.293 616.154 557.376 635.368 568.863 645.78C597.471 671.71 639.211 706.716 642.698 709.837C647.586 714.211 657.367 708.492 652.736 701.736Z" fill="#915B3C"/>
<path fill-rule="evenodd" clip-rule="evenodd" d="M651.012 696.88C653.551 698.97 655.202 700.677 655.967 702.001C656.896 703.611 657.984 706.115 659.231 709.514L608.871 738.59C605.064 735.019 604.471 732.247 607.092 730.274C609.712 728.301 611.874 726.637 613.579 725.283L630.961 701.333C631.296 700.873 631.941 700.77 632.401 701.105C632.409 701.11 632.417 701.116 632.425 701.122L636.037 703.903C639.35 703.614 641.823 702.998 643.455 702.056C644.78 701.291 646.302 699.698 648.02 697.278C648.68 696.35 649.967 696.131 650.895 696.791C650.935 696.819 650.974 696.849 651.012 696.88Z" fill="#E4E4E4"/>
<path fill-rule="evenodd" clip-rule="evenodd" d="M519.069 724.341C520.222 727.42 520.799 729.724 520.799 731.253C520.799 733.112 520.489 735.825 519.87 739.392H461.719C460.207 734.396 461.08 731.699 464.336 731.301C467.591 730.902 470.296 730.543 472.449 730.222L499.478 718.172C499.998 717.94 500.607 718.174 500.839 718.694C500.843 718.703 500.847 718.712 500.851 718.721L502.588 722.935C505.602 724.342 508.051 725.045 509.936 725.045C511.467 725.045 513.581 724.426 516.279 723.19C517.314 722.715 518.538 723.17 519.012 724.205C519.033 724.25 519.052 724.295 519.069 724.341Z" fill="#E4E4E4"/>
<path fill-rule="evenodd" clip-rule="evenodd" d="M603.423 630.361C634.866 625.239 655.927 621.736 666.606 619.853C697.044 614.486 705.921 598.106 700.673 562.368H644.589C637.168 564.511 606.157 577.766 551.557 602.134C541.733 607.01 543.563 621.389 545.359 626.126C545.432 626.319 561.992 654.697 595.041 711.258L640.919 682.032L603.337 633.805C602.344 631.806 602.373 630.658 603.423 630.361Z" fill="#5C63AB"/>
<path fill-rule="evenodd" clip-rule="evenodd" d="M599.382 548.871L566.495 573.021C557.575 575.428 550.122 578.423 544.138 582.005C542.724 583.293 541.016 585.902 546.878 585.451C552.741 585 558.928 584.79 559.737 586.789C560.546 588.789 556.998 591.181 558.634 593.879C559.724 595.678 564.874 591.167 574.085 580.348L606.652 566.843L599.382 548.871ZM725.655 549.705L704.109 549.789C717.413 592.735 724.594 615.522 725.655 618.15C728.04 624.062 722.992 633.067 720.833 637.906C727.865 641.052 727.115 629.399 735.986 633.526C744.082 637.293 750.241 644.118 759.595 638.346C760.745 637.636 762.005 634.965 758.96 632.877C751.374 627.675 740.442 618.571 738.965 615.575C736.951 611.488 732.514 589.532 725.655 549.705Z" fill="#915B3C"/>
<path fill-rule="evenodd" clip-rule="evenodd" d="M664.425 459.297L655.51 457.767C622.432 486.343 608.845 541.239 568.299 570.32L578.058 582.417C648.398 573.707 665.833 506.747 664.425 459.297Z" fill="#E87613"/>
<path fill-rule="evenodd" clip-rule="evenodd" d="M703.29 571.336H624.405C620.8 571.336 621.48 566.131 622.001 563.504C628.014 533.192 651.49 500.516 651.49 457.367L674.244 453.799C693.065 484.068 699.573 521.336 703.29 571.336Z" fill="#DDE3E9"/>
<path fill-rule="evenodd" clip-rule="evenodd" d="M702.656 483.552C705.961 482.602 708.578 480.387 710.507 476.906C718.824 461.899 715.82 453.637 706.932 450.921C698.044 448.205 690.118 453.799 675.957 453.799C675.187 453.799 674.482 453.847 673.841 453.944L666.718 454.351C646.281 523.615 640.644 569.827 649.808 592.987H711.897C715.576 601.565 719.096 608.782 722.457 614.638H739.375C740.968 563.157 728.728 519.461 702.656 483.552Z" fill="#FF9B21"/>
<path fill-rule="evenodd" clip-rule="evenodd" d="M698.377 557.414C696.424 573.752 693.25 585.61 688.855 592.987H711.897C707.606 582.981 703.099 571.123 698.377 557.414Z" fill="black" fill-opacity="0.1"/>
<path fill-rule="evenodd" clip-rule="evenodd" d="M292.764 377.111C288.244 371.805 285.185 365.303 285.696 358.016C287.169 337.023 316.392 341.641 322.077 352.237C327.761 362.833 327.086 389.709 319.739 391.603C316.809 392.358 310.568 390.508 304.215 386.679L308.203 414.888H284.659L292.764 377.111Z" fill="#B28B67"/>
<path fill-rule="evenodd" clip-rule="evenodd" d="M308.658 340.025C305.555 339.516 297.2 339.167 295.659 339.167C294.675 339.167 293.608 339.392 293.024 338.488C292.547 337.747 292.722 336.495 292.579 335.636C292.414 334.638 292.179 333.653 291.941 332.67C291.264 329.874 290.241 327.213 288.81 324.716C286.124 320.03 282.188 316.359 277.22 314.223C271.734 311.865 265.527 311.325 259.626 311.803C253.311 312.315 247.594 314.4 241.632 316.361C235.95 318.231 229.999 318.967 224.057 318.054C218.07 317.134 213.546 313.889 208.496 310.809C203.326 307.656 197.417 305.594 191.306 306.068C185.601 306.51 180.342 308.866 175.625 312.013C171.211 314.957 167.569 318.499 165.513 323.485C163.301 328.848 163.303 334.734 166.94 339.474C172.213 346.344 182.001 348.12 190.144 347.944C194.854 347.842 199.48 346.982 203.927 345.418C209.857 343.332 214.982 339.797 220.53 336.928C223.134 335.582 225.826 334.476 228.647 333.68C231.384 332.907 234.08 332.552 236.559 334.206C239.181 335.956 241.53 337.674 244.53 338.769C247.408 339.82 250.456 340.408 253.521 340.384C259.486 340.338 265.366 338.479 271.16 337.234C275.884 336.219 280.939 335.208 285.755 336.183C287.765 336.591 290.701 337.431 291.427 339.52C279.209 341.734 274.411 356.844 277.855 367.936C279.714 373.922 290.888 380.921 295.233 377.774C297.986 375.78 296.315 373.162 295.233 371.434C293.162 368.125 292.453 363.874 296.286 361.57C299.591 359.583 303.067 364.302 303.133 364.297C304.041 364.225 311.892 359.785 317.3 353.306C322.636 353.623 323.446 350.104 322.172 347.227C320.898 344.35 312.945 340.729 308.658 340.025Z" fill="#191847"/>
<path d="M274.85 666.997C316.566 666.997 350.384 634.716 350.384 594.896C350.384 555.075 316.566 522.795 274.85 522.795C233.133 522.795 199.315 555.075 199.315 594.896C199.315 634.716 233.133 666.997 274.85 666.997Z" fill="#C5CFD6"/>
<path fill-rule="evenodd" clip-rule="evenodd" d="M417.59 655.873C405.021 628.054 395.931 603.831 392.283 591.051C386.035 569.168 381.283 549.912 380.082 542.721C377.217 525.573 402.116 524.574 405.407 533.097C410.389 545.995 419.085 588.375 429.534 652.388L417.59 655.873ZM271.797 568.57C283.329 564.012 323.714 549.747 343.191 545.711C348.788 544.552 354.213 543.474 359.313 542.501C374.473 539.606 382.327 566.955 367.727 569.057C331.365 574.29 279.816 579.694 275.405 580.301C269.222 581.151 264.55 571.435 271.797 568.57Z" fill="#B28B67"/>
<path fill-rule="evenodd" clip-rule="evenodd" d="M368.618 534.975L306.241 503.221V496.308H313.659C374.006 511.686 404.843 521.541 406.171 525.873C406.185 525.919 406.198 525.966 406.21 526.013C406.241 526.053 406.27 526.093 406.3 526.133C418.259 542.581 425.422 622.88 427.773 628.893L404.856 632.311C396.089 599.804 368.042 577.158 368.787 538.224C368.586 537.082 368.535 535.999 368.618 534.975Z" fill="#1F28CF"/>
<path fill-rule="evenodd" clip-rule="evenodd" d="M311.423 553.833C305.716 552.69 300.46 551.671 295.963 550.882C266.913 545.787 258.442 530.236 263.45 496.308H316.974C325.718 498.82 371.156 517.875 394.731 528.01C410.334 534.718 405.415 558.899 396.579 565.192C396.531 565.578 396.372 565.84 396.089 565.957C348.557 585.658 310.954 575.321 298.393 578.624L292.583 560.296L311.423 553.833Z" fill="#2B44FF"/>
<path fill-rule="evenodd" clip-rule="evenodd" d="M275.74 565.657C272.626 565.955 270.415 566.422 269.108 567.06C267.518 567.836 265.327 569.232 262.535 571.249L286.79 620.978C291.692 620.187 293.635 618.316 292.617 615.366C291.6 612.415 290.78 609.952 290.156 607.977L289.187 579.838C289.168 579.296 288.714 578.872 288.173 578.891C288.163 578.891 288.154 578.892 288.145 578.892L283.816 579.165C281.356 577.174 279.734 575.372 278.948 573.761C278.309 572.452 277.956 570.386 277.888 567.563C277.862 566.48 276.963 565.623 275.88 565.649C275.833 565.65 275.787 565.652 275.74 565.657Z" fill="#E4E4E4"/>
<path fill-rule="evenodd" clip-rule="evenodd" d="M411.87 650.715C410.772 653.645 410.224 655.837 410.224 657.291C410.224 659.06 410.518 661.642 411.108 665.035H466.436C467.874 660.282 467.044 657.716 463.946 657.337C460.849 656.958 458.275 656.616 456.226 656.31L430.51 644.846C430.015 644.625 429.435 644.848 429.215 645.342C429.211 645.351 429.207 645.359 429.204 645.368L427.551 649.378C424.683 650.716 422.353 651.385 420.56 651.385C419.103 651.385 417.091 650.796 414.525 649.62C413.54 649.168 412.375 649.601 411.924 650.586C411.904 650.628 411.886 650.671 411.87 650.715Z" fill="#E4E4E4"/>
<path fill-rule="evenodd" clip-rule="evenodd" d="M367.061 469.447L402.606 453.836C408.833 447.632 414.845 442.916 420.644 439.689C422.378 439.137 425.341 438.97 422.18 443.586C419.019 448.203 415.902 453.201 417.165 454.818C418.428 456.436 422.087 454.651 423.532 457.282C424.495 459.036 418.329 461.134 405.032 463.576L378.411 483.987L367.061 469.447ZM223.357 473.746L243.459 477.734C223.243 515.409 212.402 535.376 210.935 537.637C207.634 542.723 210.714 552.044 211.851 556.953C204.715 558.614 207.529 547.873 198.498 550.116C190.255 552.163 183.266 557.416 175.579 550.331C174.634 549.46 173.943 546.737 177.164 545.341C185.192 541.862 197.051 535.347 198.974 532.818C201.596 529.369 209.724 509.678 223.357 473.746Z" fill="#B28B67"/>
<path fill-rule="evenodd" clip-rule="evenodd" d="M298.094 398.537L306.576 397.082C325.052 415.004 332.592 458.063 344.905 463.762C356.546 469.151 373.048 463.936 392.664 456.895L398.671 470.317C380.849 489.599 342.879 505.889 327.489 496.59C302.882 481.721 297.202 428.615 298.094 398.537Z" fill="#DB2721"/>
<path fill-rule="evenodd" clip-rule="evenodd" d="M261.116 505.137H336.172C339.601 505.137 338.955 500.185 338.459 497.686C332.737 468.845 310.401 437.756 310.401 396.701L288.752 393.306C270.845 422.106 264.652 457.564 261.116 505.137Z" fill="#DDE3E9"/>
<path fill-rule="evenodd" clip-rule="evenodd" d="M253.63 475.937C238.33 503.536 225.469 523.406 215.047 535.547L199.315 532.466C209.449 469.617 238.796 423.23 287.355 393.306H287.602H295.927C315.363 459.558 320.721 503.702 312.001 525.737H244.44C245.509 509.614 248.936 492.562 253.63 475.937Z" fill="#FF4133"/>
</svg>
