<svg width="193" height="227" viewBox="0 0 193 227" fill="none" xmlns="http://www.w3.org/2000/svg">
<rect x="0.5" y="0.5" width="192" height="226" rx="9.5" stroke="black"/>
<path d="M117.125 155V145.667C117.125 140.716 115.387 135.968 112.292 132.467C109.198 128.967 105.001 127 100.625 127H67.625C63.2489 127 59.0521 128.967 55.9577 132.467C52.8634 135.968 51.125 140.716 51.125 145.667V155" stroke="black" stroke-width="2" stroke-linecap="round" stroke-linejoin="round"/>
<path d="M84.125 108.333C93.2377 108.333 100.625 99.976 100.625 89.6667C100.625 79.3574 93.2377 71 84.125 71C75.0123 71 67.625 79.3574 67.625 89.6667C67.625 99.976 75.0123 108.333 84.125 108.333Z" stroke="black" stroke-width="2" stroke-linecap="round" stroke-linejoin="round"/>
<path d="M141.875 155V145.667C141.872 141.531 140.655 137.513 138.416 134.244C136.176 130.975 133.04 128.641 129.5 127.607" stroke="black" stroke-width="2" stroke-linecap="round" stroke-linejoin="round"/>
<path d="M113 71.6067C116.549 72.6347 119.695 74.9699 121.942 78.2441C124.188 81.5183 125.407 85.5452 125.407 89.69C125.407 93.8348 124.188 97.8617 121.942 101.136C119.695 104.41 116.549 106.745 113 107.773" stroke="black" stroke-width="2" stroke-linecap="round" stroke-linejoin="round"/>
</svg>
