<svg width="193" height="227" viewBox="0 0 193 227" fill="none" xmlns="http://www.w3.org/2000/svg">
<rect x="0.5" y="0.5" width="192" height="226" rx="9.5" stroke="black"/>
<path d="M129.125 155V145.667C129.125 140.716 127.387 135.968 124.292 132.467C121.198 128.967 117.001 127 112.625 127H79.625C75.2489 127 71.0521 128.967 67.9577 132.467C64.8634 135.968 63.125 140.716 63.125 145.667V155" stroke="black" stroke-width="2" stroke-linecap="round" stroke-linejoin="round"/>
<path d="M96.125 108.333C105.238 108.333 112.625 99.976 112.625 89.6667C112.625 79.3574 105.238 71 96.125 71C87.0123 71 79.625 79.3574 79.625 89.6667C79.625 99.976 87.0123 108.333 96.125 108.333Z" stroke="black" stroke-width="2" stroke-linecap="round" stroke-linejoin="round"/>
</svg>
